<svg width="1440" height="250" viewBox="0 0 1440 250" fill="none" xmlns="http://www.w3.org/2000/svg">
<path fill-rule="evenodd" clip-rule="evenodd" d="M440 73.8255L458 54.2505C477.2 34.6756 514.4 -4.4743 550.4 0.419435C587.6 5.31317 624.8 54.2505 662 78.7192C698 103.188 735.2 103.188 772.4 98.2942C809.6 93.4004 845.6 83.613 882.8 59.1443C920 34.6756 957.2 -4.4743 994.4 19.9944C1030.4 44.4631 1067.6 132.55 1104.8 171.7C1142 210.85 1178 201.063 1215.2 196.169C1252.4 191.275 1289.6 191.275 1325.6 161.913C1362.8 132.55 1400 73.8255 1437.2 54.2505C1474.4 34.6756 1510.4 54.2505 1547.6 64.038C1584.8 73.8255 1622 73.8255 1658 88.5067C1695.2 103.188 1732.4 132.55 1769.6 122.763C1805.6 112.975 1842.8 64.038 1862 39.5693L1880 15.1006V250H1862C1842.8 250 1805.6 250 1769.6 250C1732.4 250 1695.2 250 1658 250C1622 250 1584.8 250 1547.6 250C1510.4 250 1474.4 250 1437.2 250C1400 250 1362.8 250 1325.6 250C1289.6 250 1252.4 250 1215.2 250C1178 250 1142 250 1104.8 250C1067.6 250 1030.4 250 994.4 250C957.2 250 920 250 882.8 250C845.6 250 809.6 250 772.4 250C735.2 250 698 250 662 250C624.8 250 587.6 250 550.4 250C514.4 250 477.2 250 458 250H440V73.8255Z" fill="#794D4D" fill-opacity="0.2"/>
<path fill-rule="evenodd" clip-rule="evenodd" d="M-1000 117.517L-982 102.796C-962.8 88.076 -925.6 58.6353 -889.6 62.3154C-852.4 65.9955 -815.2 102.796 -778 121.197C-742 139.597 -704.8 139.597 -667.6 135.917C-630.4 132.237 -594.4 124.877 -557.2 106.476C-520 88.076 -482.8 58.6353 -445.6 77.0358C-409.6 95.4362 -372.4 161.678 -335.2 191.119C-298 220.559 -262 213.199 -224.8 209.519C-187.6 205.839 -150.4 205.839 -114.4 183.758C-77.2 161.678 -39.9999 117.517 -2.79999 102.796C34.4 88.076 70.4 102.796 107.6 110.157C144.8 117.517 182 117.517 218 128.557C255.2 139.597 292.4 161.678 329.6 154.318C365.6 146.957 402.8 110.157 422 91.7561L440 73.3557V250H422C402.8 250 365.6 250 329.6 250C292.4 250 255.2 250 218 250C182 250 144.8 250 107.6 250C70.4 250 34.4 250 -2.79999 250C-39.9999 250 -77.2 250 -114.4 250C-150.4 250 -187.6 250 -224.8 250C-262 250 -298 250 -335.2 250C-372.4 250 -409.6 250 -445.6 250C-482.8 250 -520 250 -557.2 250C-594.4 250 -630.4 250 -667.6 250C-704.8 250 -742 250 -778 250C-815.2 250 -852.4 250 -889.6 250C-925.6 250 -962.8 250 -982 250H-1000V117.517Z" fill="#794D4D" fill-opacity="0.2"/>
</svg>
