<svg width="1440" height="250" viewBox="0 0 1440 250" fill="none" xmlns="http://www.w3.org/2000/svg">
<path fill-rule="evenodd" clip-rule="evenodd" d="M0 156.25L18.8067 161.458C35.2625 166.667 72.8758 177.083 108.138 161.458C145.752 145.833 181.014 104.167 216.277 83.3333C253.89 62.5 289.152 62.5 324.415 67.7083C362.028 72.9167 397.291 83.3333 434.904 109.375C470.167 135.417 505.429 177.083 543.043 197.917C578.305 218.75 615.918 218.75 651.181 192.708C686.443 166.667 724.057 114.583 759.319 119.792C794.582 125 832.195 187.5 867.458 197.917C905.071 208.333 940.333 166.667 975.596 151.042C1013.21 135.417 1048.47 145.833 1086.09 119.792C1121.35 93.75 1156.61 31.25 1194.22 10.4167C1229.49 -10.4167 1264.75 10.4167 1302.36 41.6667C1337.62 72.9167 1375.24 114.583 1410.5 119.792C1445.76 125 1483.38 93.75 1518.64 104.167C1556.25 114.583 1591.51 166.667 1626.78 187.5C1664.39 208.333 1699.65 197.917 1734.92 187.5C1772.53 177.083 1807.79 166.667 1845.4 151.042C1880.67 135.417 1915.93 114.583 1953.54 88.5417C1988.81 62.5 2026.42 31.25 2061.68 20.8333C2096.94 10.4167 2134.56 20.8333 2169.82 41.6667C2205.08 62.5 2242.7 93.75 2277.96 104.167C2315.57 114.583 2350.83 104.167 2386.1 93.75C2423.71 83.3333 2458.97 72.9167 2496.59 98.9583C2531.85 125 2567.11 187.5 2604.72 197.917C2639.99 208.333 2675.25 166.667 2712.86 125C2748.12 83.3333 2785.74 41.6667 2802.19 20.8333L2821 0V250H2802.19C2785.74 250 2748.12 250 2712.86 250C2675.25 250 2639.99 250 2604.72 250C2567.11 250 2531.85 250 2496.59 250C2458.97 250 2423.71 250 2386.1 250C2350.83 250 2315.57 250 2277.96 250C2242.7 250 2205.08 250 2169.82 250C2134.56 250 2096.94 250 2061.68 250C2026.42 250 1988.81 250 1953.54 250C1915.93 250 1880.67 250 1845.4 250C1807.79 250 1772.53 250 1734.92 250C1699.65 250 1664.39 250 1626.78 250C1591.51 250 1556.25 250 1518.64 250C1483.38 250 1445.76 250 1410.5 250C1375.24 250 1337.62 250 1302.36 250C1264.75 250 1229.49 250 1194.22 250C1156.61 250 1121.35 250 1086.09 250C1048.47 250 1013.21 250 975.596 250C940.333 250 905.071 250 867.458 250C832.195 250 794.582 250 759.319 250C724.057 250 686.443 250 651.181 250C615.918 250 578.305 250 543.043 250C505.429 250 470.167 250 434.904 250C397.291 250 362.028 250 324.415 250C289.152 250 253.89 250 216.277 250C181.014 250 145.752 250 108.138 250C72.8758 250 35.2625 250 18.8067 250H0V156.25Z" fill="black" fill-opacity="1"/>
</svg>
