<svg width="2880" height="250" viewBox="0 0 2880 250" fill="none" xmlns="http://www.w3.org/2000/svg">
<path fill-rule="evenodd" clip-rule="evenodd" d="M1440 73.8255L1458 54.2505C1477.2 34.6756 1514.4 -4.4743 1550.4 0.419435C1587.6 5.31317 1624.8 54.2505 1662 78.7192C1698 103.188 1735.2 103.188 1772.4 98.2942C1809.6 93.4004 1845.6 83.613 1882.8 59.1443C1920 34.6756 1957.2 -4.4743 1994.4 19.9944C2030.4 44.4631 2067.6 132.55 2104.8 171.7C2142 210.85 2178 201.063 2215.2 196.169C2252.4 191.275 2289.6 191.275 2325.6 161.913C2362.8 132.55 2400 73.8255 2437.2 54.2505C2474.4 34.6756 2510.4 54.2505 2547.6 64.038C2584.8 73.8255 2622 73.8255 2658 88.5067C2695.2 103.188 2732.4 132.55 2769.6 122.763C2805.6 112.975 2842.8 64.038 2862 39.5693L2880 15.1006V250H2862C2842.8 250 2805.6 250 2769.6 250C2732.4 250 2695.2 250 2658 250C2622 250 2584.8 250 2547.6 250C2510.4 250 2474.4 250 2437.2 250C2400 250 2362.8 250 2325.6 250C2289.6 250 2252.4 250 2215.2 250C2178 250 2142 250 2104.8 250C2067.6 250 2030.4 250 1994.4 250C1957.2 250 1920 250 1882.8 250C1845.6 250 1809.6 250 1772.4 250C1735.2 250 1698 250 1662 250C1624.8 250 1587.6 250 1550.4 250C1514.4 250 1477.2 250 1458 250H1440V73.8255Z" fill="#794D4D" fill-opacity="0.2"/>
<path fill-rule="evenodd" clip-rule="evenodd" d="M0 117.517L18 102.796C37.2 88.076 74.4 58.6353 110.4 62.3154C147.6 65.9955 184.8 102.796 222 121.197C258 139.597 295.2 139.597 332.4 135.917C369.6 132.237 405.6 124.877 442.8 106.476C480 88.076 517.2 58.6353 554.4 77.0358C590.4 95.4362 627.6 161.678 664.8 191.119C702 220.559 738 213.199 775.2 209.519C812.4 205.839 849.6 205.839 885.6 183.758C922.8 161.678 960 117.517 997.2 102.796C1034.4 88.076 1070.4 102.796 1107.6 110.157C1144.8 117.517 1182 117.517 1218 128.557C1255.2 139.597 1292.4 161.678 1329.6 154.318C1365.6 146.957 1402.8 110.157 1422 91.7561L1440 73.3557V250H1422C1402.8 250 1365.6 250 1329.6 250C1292.4 250 1255.2 250 1218 250C1182 250 1144.8 250 1107.6 250C1070.4 250 1034.4 250 997.2 250C960 250 922.8 250 885.6 250C849.6 250 812.4 250 775.2 250C738 250 702 250 664.8 250C627.6 250 590.4 250 554.4 250C517.2 250 480 250 442.8 250C405.6 250 369.6 250 332.4 250C295.2 250 258 250 222 250C184.8 250 147.6 250 110.4 250C74.4 250 37.2 250 18 250H0V117.517Z" fill="#794D4D" fill-opacity="0.2"/>
</svg>
