<svg width="89" height="89" viewBox="0 0 88 89" fill="none" xmlns="http://www.w3.org/2000/svg">
<path fill-rule="evenodd" clip-rule="evenodd" d="M87 44.5L86.9989 44.7203L86.9954 44.9406L86.9897 45.1609L86.9818 45.3811L86.9715 45.6012L86.9589 45.8212L86.9441 46.0411L86.927 46.2608L86.9076 46.4803L86.886 46.6996L86.8621 46.9187L86.8359 47.1375L86.8074 47.3561L86.7767 47.5743L86.7438 47.7922L86.7086 48.0098L86.6711 48.227L86.6314 48.4438L86.5894 48.6602L86.5452 48.8762L86.4988 49.0917L86.4502 49.3067L86.3993 49.5212L86.3463 49.7352L86.291 49.9487L86.2335 50.1616L86.1738 50.3738L86.1119 50.5855L86.0479 50.7965L85.9817 51.0069L85.9133 51.2166L85.8428 51.4255L85.7701 51.6338L85.6952 51.8413L85.6183 52.048L85.5392 52.254L85.458 52.4591L85.3746 52.6634L85.2892 52.8669L85.2017 53.0695L85.1122 53.2711L85.0205 53.4719L84.9268 53.6717L84.8311 53.8706L84.7333 54.0685L84.6335 54.2654L84.5317 54.4613L84.4279 54.6561L84.3221 54.8499L84.2143 55.0427L84.1046 55.2343L83.9929 55.4248L83.8793 55.6141L83.7637 55.8023L83.6463 55.9894L83.5269 56.1752L83.4057 56.3599L83.2825 56.5433L83.1576 56.7254L83.0307 56.9063L82.9021 57.0859L82.7716 57.2642L82.6393 57.4412L82.5053 57.6169L82.3695 57.7912L82.2319 57.9641L82.0926 58.1357L81.9515 58.3058L81.8088 58.4745L81.6643 58.6418L81.5182 58.8076L81.3704 58.972L81.221 59.1348L81.07 59.2962L80.9173 59.4561L80.763 59.6144L80.6072 59.7711L80.4499 59.9264L80.2909 60.08L80.1305 60.232L79.9686 60.3825L79.8051 60.5313L79.6403 60.6785L79.4739 60.824L79.3061 60.9679L79.137 61.1101L78.9664 61.2506L78.7944 61.3894L78.6211 61.5265L78.4465 61.6619L78.2705 61.7956L78.0933 61.9275L77.9148 62.0576L77.735 62.186L77.554 62.3126L77.3717 62.4374L77.1883 62.5604L77.0037 62.6816L76.8179 62.8009L76.631 62.9184L76.443 63.0341L76.2539 63.1479L76.0637 63.2599L75.8725 63.37L75.6802 63.4782L75.4869 63.5845L75.2927 63.689L75.0974 63.7915L74.9012 63.8921L74.7041 63.9908L74.5061 64.0875L74.3072 64.1824L74.1075 64.2752L73.9069 64.3662L73.7054 64.4552L73.5032 64.5422L73.3002 64.6272L73.0965 64.7103L72.892 64.7914L72.6868 64.8705L72.481 64.9477L72.2744 65.0228L72.0673 65.096L71.8595 65.1671L71.6511 65.2362L71.4421 65.3034L71.2326 65.3685L71.0225 65.4316L70.812 65.4927L70.6009 65.5518L70.3894 65.6088L70.1774 65.6639L69.9651 65.7169L69.7523 65.7678L69.5391 65.8168L69.3256 65.8637L69.1118 65.9086L68.8977 65.9515L68.6833 65.9923L68.4686 66.0311L68.2536 66.0679L68.0385 66.1026L67.8231 66.1353L67.6076 66.166L67.392 66.1947L67.1762 66.2213L66.9602 66.2459L66.7443 66.2685L66.5282 66.2891L66.3121 66.3076L66.096 66.3242L65.8799 66.3387L65.6638 66.3512L65.4477 66.3618L65.2318 66.3703L65.0159 66.3768L64.8001 66.3814L64.5845 66.3839L64.369 66.3845L64.1537 66.3831L63.9386 66.3797L63.7237 66.3744L63.509 66.3671L63.2947 66.3579L63.0806 66.3467L62.8667 66.3335L62.6533 66.3185L62.4401 66.3015L62.2274 66.2826L62.015 66.2618L61.803 66.239L61.5915 66.2144L61.3804 66.1879L61.1698 66.1595L60.9596 66.1292L60.75 66.0971L60.5409 66.0631L60.3323 66.0273L60.1244 65.9897L59.917 65.9502L59.7102 65.9089L59.504 65.8658L59.2985 65.8209L59.0936 65.7743L58.8894 65.7258L58.686 65.6756L58.4832 65.6236L58.2812 65.5699L58.0799 65.5145L57.8794 65.4574L57.6797 65.3986L57.4808 65.338L57.2828 65.2758L57.0856 65.2119L56.8892 65.1464L56.6937 65.0793L56.4992 65.0105L56.3055 64.9401L56.1128 64.868L55.921 64.7945L55.7302 64.7193L55.5403 64.6426L55.3515 64.5643L55.1636 64.4845L54.9768 64.4032L54.791 64.3204L54.6063 64.2361L54.4227 64.1504L54.2401 64.0631L54.0587 63.9745L53.8783 63.8844L53.6991 63.7929L53.521 63.7001L53.3441 63.6058L53.1684 63.5102L52.9938 63.4133L52.8205 63.315L52.6483 63.2154L52.4774 63.1145L52.3077 63.0124L52.1393 62.909L51.9721 62.8043L51.8062 62.6985L51.6416 62.5914L51.4782 62.4831L51.3162 62.3737L51.1555 62.2631L50.9961 62.1514L50.8381 62.0385L50.6814 61.9246L50.5261 61.8096L50.3721 61.6935L50.2196 61.5764L50.0684 61.4582L49.9186 61.3391L49.7702 61.2189L49.6233 61.0978L49.4777 60.9757L49.3336 60.8527L49.191 60.7288L49.0498 60.604L48.91 60.4784L48.7717 60.3519L48.6349 60.2245L48.4996 60.0963L48.3657 59.9674L48.2334 59.8376L48.1025 59.7071L47.9732 59.5759L47.8453 59.4439L47.719 59.3113L47.5942 59.178L47.4709 59.044L47.3491 58.9094L47.2289 58.7742L47.1102 58.6383L46.9931 58.5019L46.8775 58.365L46.7635 58.2275L46.651 58.0894L46.54 57.9509L46.4307 57.8119L46.3229 57.6725L46.2166 57.5326L46.1119 57.3923L46.0088 57.2516L45.9073 57.1106L45.8073 56.9692L45.7089 56.8274L45.6121 56.6853L45.5168 56.543L45.4231 56.4004L45.331 56.2575L45.2405 56.1144L45.1516 55.971L45.0642 55.8275L44.9784 55.6838L44.8941 55.5399L44.8114 55.396L44.7303 55.2519L44.6508 55.1077L44.5728 54.9634L44.4964 54.8191L44.4216 54.6747L44.3483 54.5304L44.2765 54.386L44.2063 54.2417L44.1377 54.0974L44.0705 53.9532L44.005 53.809L43.9409 53.665L43.8784 53.5211L43.8174 53.3773L43.758 53.2337L43.7 53.0903L43.6436 52.9471L43.5887 52.8041L43.5352 52.6613L43.4833 52.5188L43.4328 52.3765L43.3838 52.2346L43.3363 52.093L43.2903 51.9516L43.2457 51.8107L43.2025 51.6701L43.1609 51.5299L43.1206 51.3901L43.0818 51.2507L43.0443 51.1118L43.0083 50.9733L42.9737 50.8353L42.9405 50.6978L42.9087 50.5607L42.8783 50.4243L42.8492 50.2883L42.8214 50.1529L42.7951 50.0181L42.77 49.8839L42.7463 49.7503L42.7239 49.6173L42.7027 49.485L42.6829 49.3533L42.6644 49.2223L42.6471 49.0919L42.6311 48.9623L42.6164 48.8334L42.6028 48.7052L42.5905 48.5778L42.5794 48.4512L42.5695 48.3253L42.5608 48.2002L42.5533 48.0759L42.5469 47.9525L42.5417 47.8299L42.5376 47.7081L42.5346 47.5872L42.5328 47.4672L42.532 47.3481L42.5323 47.2298L42.5337 47.1125L42.5361 46.9961L42.5395 46.8807L42.544 46.7662L42.5495 46.6527L42.556 46.5402L42.5635 46.4286L42.5719 46.3181L42.5813 46.2085L42.5916 46.1L42.6028 45.9925L42.6149 45.8861L42.628 45.7808L42.6418 45.6765L42.6566 45.5732L42.6722 45.4711L42.6886 45.3701L42.7058 45.2701L42.7238 45.1713L42.7425 45.0736L42.7621 44.9771L42.7824 44.8817L42.8033 44.7874L42.825 44.6943L42.8474 44.6024L42.8705 44.5116L42.8942 44.4221L42.9186 44.3337L42.9436 44.2465L42.9691 44.1605L42.9953 44.0758L43.022 43.9922L43.0493 43.9099L43.0772 43.8288L43.1055 43.7489L43.1343 43.6703L43.1636 43.5929L43.1934 43.5168L43.2236 43.442L43.2543 43.3684L43.2854 43.296L43.3168 43.225L43.3486 43.1552L43.3808 43.0867L43.4133 43.0194L43.4461 42.9535L43.4793 42.8888L43.5127 42.8255L43.5463 42.7634L43.5803 42.7026L43.6144 42.6431L43.6488 42.5849L43.6833 42.528L43.718 42.4725L43.7529 42.4182L43.7879 42.3652L43.823 42.3135L43.8582 42.2631L43.8935 42.2141L43.9288 42.1663L43.9642 42.1198L43.9996 42.0747L44.035 42.0308L44.0704 41.9883L44.1058 41.947L44.1411 41.9071L44.1764 41.8684L44.2115 41.831L44.2466 41.795L44.2815 41.7602L44.3163 41.7267L44.351 41.6945L44.3855 41.6636L44.4197 41.6339L44.4538 41.6055L44.4876 41.5784L44.5212 41.5526L44.5545 41.528L44.5875 41.5047L44.6202 41.4826L44.6526 41.4618L44.6847 41.4422L44.7164 41.4239L44.7478 41.4068L44.7787 41.3909L44.8093 41.3762L44.8394 41.3627L44.8691 41.3505L44.8983 41.3394L44.9271 41.3296L44.9554 41.3209L44.9831 41.3134L45.0104 41.3071L45.037 41.3019L45.0632 41.2979L45.0888 41.2951L45.1137 41.2933L45.1381 41.2927L45.1619 41.2933L45.185 41.2949L45.2074 41.2976L45.2292 41.3015L45.2504 41.3064L45.2708 41.3123L45.2905 41.3194L45.3095 41.3275L45.3277 41.3366L45.3452 41.3468L45.3619 41.3579L45.3778 41.3701L45.3929 41.3833L45.4072 41.3975L45.4207 41.4126L45.4333 41.4288L45.4451 41.4458L45.456 41.4638L45.466 41.4827L45.4752 41.5026L45.4834 41.5233L45.4907 41.5449L45.497 41.5674L45.5024 41.5908L45.5069 41.615L45.5104 41.64L45.5129 41.6659L45.5144 41.6925L45.5149 41.72L45.5143 41.7482L45.5128 41.7772L45.5102 41.807L45.5065 41.8375L45.5018 41.8687L45.4961 41.9006L45.4892 41.9332L45.4812 41.9665L45.4722 42.0004L45.462 42.035L45.4507 42.0702L45.4383 42.1061L45.4247 42.1425L45.41 42.1795L45.3941 42.2171L45.377 42.2552L45.3588 42.2938L45.3394 42.333L45.3188 42.3727L45.297 42.4129L45.274 42.4535L45.2498 42.4946L45.2243 42.5361L45.1976 42.578L45.1697 42.6203L45.1406 42.663L45.1102 42.7061L45.0785 42.7495L45.0456 42.7933L45.0115 42.8373L44.976 42.8817L44.9393 42.9263L44.9013 42.9712L44.862 43.0164L44.8215 43.0617L44.7796 43.1073L44.7365 43.1531L44.692 43.199L44.6462 43.2451L44.5992 43.2913L44.5508 43.3376L44.5011 43.3841L44.4501 43.4306L44.3978 43.4771L44.3442 43.5238L44.2892 43.5704L44.2329 43.617L44.1753 43.6637L44.1164 43.7103L44.0561 43.7568L43.9946 43.8033L43.9317 43.8497L43.8674 43.896L43.8019 43.9422L43.735 43.9882L43.6668 44.0341L43.5972 44.0798L43.5264 44.1252L43.4542 44.1705L43.3807 44.2156L43.3059 44.2603L43.2298 44.3049L43.1523 44.3491L43.0735 44.393L42.9935 44.4366L42.9121 44.4798L42.8294 44.5227L42.7454 44.5652L42.6602 44.6073L42.5736 44.649L42.4857 44.6902L42.3966 44.731L42.3062 44.7713L42.2145 44.8111L42.1215 44.8504L42.0273 44.8892L41.9318 44.9274L41.8351 44.9651L41.7371 45.0022L41.6379 45.0387L41.5374 45.0745L41.4357 45.1098L41.3328 45.1444L41.2287 45.1783L41.1234 45.2115L41.0169 45.244L40.9092 45.2758L40.8003 45.3069L40.6902 45.3372L40.579 45.3667L40.4666 45.3954L40.3531 45.4234L40.2384 45.4505L40.1226 45.4767L40.0057 45.5022L39.8877 45.5267L39.7686 45.5503L39.6484 45.5731L39.5271 45.5949L39.4047 45.6158L39.2813 45.6357L39.1569 45.6547L39.0314 45.6727L38.9049 45.6896L38.7773 45.7056L38.6488 45.7205L38.5193 45.7344L38.3888 45.7473L38.2574 45.759L38.125 45.7697L37.9916 45.7792L37.8574 45.7877L37.7222 45.795L37.5862 45.8011L37.4492 45.8062L37.3114 45.81L37.1727 45.8126L37.0332 45.8141L36.8929 45.8143L36.7517 45.8133L36.6098 45.8111L36.467 45.8076L36.3235 45.8028L36.1793 45.7968L36.0343 45.7895L35.8886 45.7809L35.7421 45.771L35.595 45.7597L35.4472 45.7471L35.2988 45.7332L35.1497 45.7179L35 45.7012L34.8497 45.6832L34.6988 45.6638L34.5473 45.6429L34.3952 45.6207L34.2426 45.597L34.0895 45.572L33.9359 45.5454L33.7818 45.5175L33.6272 45.488L33.4722 45.4571L33.3167 45.4248L33.1609 45.3909L33.0046 45.3556L32.8479 45.3188L32.6909 45.2804L32.5335 45.2406L32.3758 45.1992L32.2178 45.1563L32.0595 45.1118L31.901 45.0658L31.7422 45.0183L31.5831 44.9692L31.4239 44.9186L31.2644 44.8664L31.1048 44.8126L30.945 44.7572L30.7851 44.7003L30.6251 44.6418L30.465 44.5817L30.3048 44.5199L30.1446 44.4566L29.9843 44.3917L29.824 44.3252L29.6637 44.2571L29.5034 44.1873L29.3432 44.116L29.1831 44.043L29.023 43.9684L28.863 43.8922L28.7032 43.8143L28.5435 43.7349L28.384 43.6538L28.2246 43.571L28.0655 43.4867L27.9066 43.4007L27.7479 43.3131L27.5895 43.2238L27.4314 43.1329L27.2736 43.0404L27.1162 42.9463L26.9591 42.8505L26.8023 42.7531L26.646 42.654L26.4901 42.5534L26.3346 42.4511L26.1795 42.3472L26.0249 42.2417L25.8709 42.1345L25.7173 42.0258L25.5643 41.9154L25.4118 41.8034L25.2599 41.6898L25.1086 41.5746L24.958 41.4578L24.8079 41.3395L24.6585 41.2195L24.5098 41.0979L24.3618 40.9748L24.2146 40.8501L24.068 40.7238L23.9222 40.596L23.7772 40.4666L23.633 40.3357L23.4897 40.2032L23.3471 40.0692L23.2054 39.9336L23.0646 39.7965L22.9247 39.6579L22.7857 39.5178L22.6477 39.3762L22.5106 39.2331L22.3745 39.0886L22.2394 38.9425L22.1053 38.795L21.9722 38.646L21.8402 38.4956L21.7093 38.3437L21.5795 38.1904L21.4507 38.0357L21.3231 37.8796L21.1967 37.7221L21.0714 37.5632L20.9473 37.4029L20.8244 37.2412L20.7027 37.0782L20.5823 36.9139L20.4631 36.7482L20.3452 36.5812L20.2286 36.4129L20.1133 36.2433L19.9993 36.0724L19.8867 35.9003L19.7754 35.7269L19.6655 35.5522L19.557 35.3764L19.4499 35.1993L19.3442 35.021L19.24 34.8415L19.1373 34.6608L19.036 34.479L18.9362 34.2961L18.8379 34.112L18.7412 33.9268L18.646 33.7405L18.5523 33.5531L18.4602 33.3646L18.3697 33.1751L18.2808 32.9846L18.1935 32.793L18.1078 32.6004L18.0238 32.4069L17.9415 32.2124L17.8608 32.0169L17.7817 31.8205L17.7044 31.6231L17.6288 31.4249L17.5549 31.2258L17.4828 31.0258L17.4124 30.8249L17.3437 30.6233L17.2768 30.4208L17.2118 30.2175L17.1485 30.0135L17.087 29.8087L17.0273 29.6031L16.9695 29.3968L16.9135 29.1899L16.8594 28.9822L16.8071 28.7739L16.7567 28.5649L16.7082 28.3554L16.6616 28.1452L16.6168 27.9344L16.574 27.7231L16.5331 27.5112L16.4942 27.2988L16.4572 27.0859L16.4221 26.8725L16.389 26.6587L16.3578 26.4444L16.3287 26.2297L16.3015 26.0146L16.2763 25.7991L16.253 25.5832L16.2318 25.3671L16.2126 25.1506L16.1954 24.9338L16.1803 24.7167L16.1671 24.4994L16.156 24.2818L16.1469 24.0641L16.1399 23.8461L16.1349 23.628L16.132 23.4098L16.1311 23.1914L16.1323 22.9729L16.1355 22.7544L16.1408 22.5358L16.1482 22.3171L16.1577 22.0985L16.1692 21.8799L16.1828 21.6613L16.1985 21.4427L16.2163 21.2242L16.2362 21.0059L16.2582 20.7876L16.2822 20.5695L16.3083 20.3516L16.3366 20.1339L16.3669 19.9163L16.3993 19.699L16.4338 19.482L16.4704 19.2653L16.5091 19.0488L16.5499 18.8327L16.5928 18.6169L16.6378 18.4015L16.6848 18.1865L16.734 17.9719L16.7852 17.7577L16.8385 17.544L16.8939 17.3308L16.9514 17.1181L17.0109 16.9059L17.0725 16.6943L17.1362 16.4832L17.2019 16.2728L17.2698 16.0629L17.3396 15.8537L17.4115 15.6452L17.4855 15.4373L17.5615 15.2302L17.6395 15.0237L17.7196 14.8181L17.8016 14.6132L17.8857 14.4091L17.9719 14.2058L18.06 14.0033L18.1501 13.8017L18.2422 13.601L18.3363 13.4012L18.4324 13.2024L18.5304 13.0044L18.6304 12.8075L18.7324 12.6115L18.8363 12.4165L18.9421 12.2226L19.0499 12.0297L19.1595 11.8379L19.2711 11.6472L19.3846 11.4576L19.5 11.2691L19.6172 11.0818L19.7363 10.8957L19.8573 10.7108L19.9801 10.527L20.1047 10.3446L20.2312 10.1633L20.3595 9.9834L20.4896 9.80475L20.6214 9.62741L20.7551 9.45141L20.8905 9.27676L21.0276 9.10349L21.1665 8.93161L21.3071 8.76114L21.4495 8.5921L21.5935 8.42451L21.7392 8.25839L21.8865 8.09375L22.0356 7.93061L22.1862 7.769L22.3385 7.60893L22.4924 7.45041L22.6479 7.29346L22.805 7.13811L22.9636 6.98436L23.1238 6.83224L23.2855 6.68176L23.4488 6.53294L23.6135 6.3858L23.7797 6.24035L23.9474 6.0966L24.1166 5.95458L24.2871 5.81429L24.4591 5.67576L24.6325 5.539L24.8073 5.40402L24.9834 5.27085L25.1609 5.13948L25.3397 5.00995L25.5199 4.88226L25.7013 4.75642L25.884 4.63246L26.0679 4.51038L26.2531 4.3902L26.4395 4.27193L26.6271 4.15558L26.8158 4.04117L27.0058 3.92872L27.1968 3.81822L27.389 3.7097L27.5823 3.60316L27.7767 3.49862L27.9721 3.39609L28.1686 3.29558L28.3661 3.1971L28.5646 3.10067L28.764 3.00629L28.9644 2.91397L29.1658 2.82372L29.3681 2.73556L29.5712 2.64949L29.7753 2.56552L29.9802 2.48367L30.1859 2.40393L30.3924 2.32633L30.5997 2.25086L30.8078 2.17754L31.0167 2.10637L31.2262 2.03736L31.4365 1.97052L31.6474 1.90586L31.859 1.84338L32.0712 1.78309L32.284 1.72499L32.4974 1.6691L32.7114 1.61542L32.926 1.56395L33.141 1.5147L33.3566 1.46767L33.5726 1.42287L33.7891 1.38031L34.006 1.33999L34.2233 1.30191L34.441 1.26607L34.659 1.23249L34.8774 1.20116L35.0962 1.17208L35.3152 1.14527L35.5345 1.12072L35.754 1.09843L35.9737 1.07841L36.1937 1.06065L36.4138 1.04517L36.6341 1.03196L36.8545 1.02102L37.0751 1.01236L37.2957 1.00596L37.5163 1.00184L37.737 1L37.9578 1.00043L38.1785 1.00313L38.3992 1.00811L38.6198 1.01535L38.8404 1.02487L39.0608 1.03665L39.2811 1.0507L39.5013 1.06701L39.7213 1.08559L39.9411 1.10643L40.1608 1.12952L40.3801 1.15486L40.5992 1.18246L40.818 1.2123L41.0366 1.24438L41.2547 1.27871L41.4726 1.31526L41.69 1.35405L41.9071 1.39506L42.1237 1.43828L42.3399 1.48373L42.5556 1.53137L42.7709 1.58123L42.9856 1.63327L43.1998 1.68751L43.4134 1.74393L43.6265 1.80252L43.839 1.86328L44.0508 1.9262L44.262 1.99128L44.4726 2.0585L44.6824 2.12786L44.8916 2.19935L45.1 2.27296L45.3077 2.34867L45.5146 2.42649L45.7207 2.50641L45.926 2.5884L46.1305 2.67247L46.3341 2.7586L46.5368 2.84679L46.7387 2.93702L46.9396 3.02927L47.1396 3.12355L47.3386 3.21984L47.5367 3.31813L47.7337 3.4184L47.9298 3.52064L48.1248 3.62485L48.3187 3.73101L48.5116 3.83911L48.7034 3.94913L48.8941 4.06106L49.0837 4.17489L49.2721 4.2906L49.4593 4.40819L49.6454 4.52764L49.8302 4.64892L50.0138 4.77204L50.1962 4.89697L50.3773 5.02371L50.5572 5.15223L50.7358 5.28251L50.913 5.41456L51.0889 5.54835L51.2635 5.68386L51.4367 5.82107L51.6086 5.95999L51.779 6.10058L51.9481 6.24283L52.1157 6.38672L52.2819 6.53224L52.4466 6.67937L52.6099 6.8281L52.7717 6.9784L52.932 7.13027L53.0907 7.28367L53.2479 7.4386L53.4036 7.59504L53.5578 7.75296L53.7103 7.91236L53.8613 8.07321L54.0107 8.23549L54.1584 8.39919L54.3046 8.56429L54.4491 8.73076L54.592 8.89859L54.7331 9.06777L54.8727 9.23826L55.0105 9.41006L55.1466 9.58314L55.2811 9.75748L55.4138 9.93307L55.5448 10.1099L55.674 10.2879L55.8015 10.4671L55.9272 10.6475L56.0512 10.829L56.1734 11.0116L56.2937 11.1953L56.4123 11.3801L56.5291 11.566L56.6441 11.7529L56.7572 11.9408L56.8685 12.1298L56.9779 12.3197L57.0855 12.5106L57.1913 12.7024L57.2952 12.8951L57.3972 13.0887L57.4973 13.2832L57.5955 13.4785L57.6919 13.6747L57.7863 13.8716L57.8789 14.0694L57.9695 14.2679L58.0582 14.4672L58.145 14.6672L58.2299 14.8679L58.3128 15.0692L58.3938 15.2712L58.4729 15.4739L58.55 15.6772L58.6252 15.881L58.6985 16.0854L58.7697 16.2904L58.8391 16.4959L58.9064 16.7019L58.9719 16.9084L59.0353 17.1153L59.0968 17.3227L59.1563 17.5304L59.2139 17.7386L59.2695 17.9471L59.3231 18.156L59.3748 18.3652L59.4245 18.5748L59.4722 18.7846L59.5179 18.9946L59.5617 19.2049L59.6035 19.4154L59.6434 19.6261L59.6813 19.837L59.7172 20.048L59.7512 20.2591L59.7832 20.4704L59.8132 20.6817L59.8413 20.8931L59.8675 21.1046L59.8917 21.316L59.9139 21.5275L59.9343 21.7389L59.9526 21.9503L59.9691 22.1616L59.9836 22.3728L59.9962 22.5839L60.0069 22.7949L60.0156 23.0058L60.0225 23.2164L60.0274 23.4269L60.0305 23.6371L60.0316 23.8471L60.0309 24.0569L60.0283 24.2664L60.0238 24.4755L60.0174 24.6844L60.0092 24.8929L59.9992 25.1011L59.9873 25.3088L59.9735 25.5162L59.958 25.7232L59.9406 25.9297L59.9214 26.1357L59.9004 26.3413L59.8776 26.5464L59.853 26.7509L59.8267 26.9549L59.7986 27.1584L59.7687 27.3613L59.7371 27.5636L59.7038 27.7652L59.6687 27.9663L59.6319 28.1667L59.5934 28.3664L59.5533 28.5654L59.5114 28.7638L59.4679 28.9614L59.4227 29.1582L59.3759 29.3543L59.3274 29.5497L59.2774 29.7442L59.2257 29.9379L59.1724 30.1308L59.1176 30.3229L59.0611 30.514L59.0032 30.7044L58.9436 30.8938L58.8826 31.0823L58.82 31.2699L58.756 31.4565L58.6904 31.6422L58.6234 31.8269L58.5549 32.0106L58.485 32.1933L58.4137 32.375L58.3409 32.5557L58.2667 32.7353L58.1912 32.9139L58.1143 33.0913L58.036 33.2677L57.9564 33.443L57.8755 33.6172L57.7933 33.7902L57.7098 33.9621L57.6251 34.1329L57.539 34.3024L57.4518 34.4708L57.3633 34.638L57.2736 34.804L57.1827 34.9688L57.0907 35.1323L56.9975 35.2946L56.9031 35.4557L56.8077 35.6155L56.7112 35.774L56.6135 35.9312L56.5148 36.0872L56.4151 36.2418L56.3143 36.3951L56.2126 36.5471L56.1098 36.6978L56.006 36.8471L55.9014 36.995L55.7957 37.1416L55.6892 37.2869L55.5817 37.4307L55.4734 37.5732L55.3642 37.7143L55.2542 37.8539L55.1433 37.9922L55.0317 38.1291L54.9192 38.2645L54.806 38.3985L54.6921 38.5311L54.5774 38.6622L54.462 38.7919L54.3459 38.9201L54.2292 39.0469L54.1118 39.1722L53.9938 39.296L53.8751 39.4183L53.7559 39.5392L53.6361 39.6586L53.5158 39.7765L53.3949 39.893L53.2735 40.0079L53.1517 40.1213L53.0293 40.2333L52.9065 40.3437L52.7833 40.4526L52.6597 40.56L52.5356 40.666L52.4112 40.7704L52.2865 40.8732L52.1614 40.9746L52.036 41.0745L51.9103 41.1728L51.7844 41.2696L51.6582 41.365L51.5317 41.4588L51.4051 41.551L51.2782 41.6418L51.1512 41.731L51.024 41.8188L50.8967 41.905L50.7693 41.9897L50.6418 42.0729L50.5142 42.1546L50.3866 42.2347L50.2589 42.3134L50.1312 42.3906L50.0035 42.4663L49.8759 42.5405L49.7482 42.6131L49.6207 42.6843L49.4932 42.754L49.3658 42.8223L49.2386 42.889L49.1115 42.9543L48.9845 43.0181L48.8577 43.0805L48.7312 43.1414L48.6048 43.2008L48.4786 43.2588L48.3528 43.3153L48.2271 43.3705L48.1018 43.4241L47.9768 43.4764L47.8521 43.5273L47.7278 43.5767L47.6038 43.6247L47.4801 43.6714L47.3569 43.7166L47.2341 43.7605L47.1118 43.803L46.9898 43.8442L46.8684 43.884L46.7474 43.9224L46.6269 43.9595L46.507 43.9953L46.3876 44.0297L46.2687 44.0629L46.1504 44.0948L46.0327 44.1253L45.9156 44.1546L45.7991 44.1826L45.6832 44.2094L45.568 44.2349L45.4535 44.2592L45.3396 44.2822L45.2264 44.304L45.114 44.3247L45.0022 44.3441L44.8912 44.3623L44.781 44.3794L44.6715 44.3954L44.5628 44.4101L44.4549 44.4238L44.3478 44.4363L44.2416 44.4478L44.1362 44.4581L44.0316 44.4674L43.9279 44.4755L43.8251 44.4827L43.7232 44.4888L43.6222 44.4938L43.5221 44.4979L43.4229 44.5009L43.3247 44.503L43.2274 44.5041L43.1312 44.5043L43.0358 44.5035L42.9415 44.5018L42.8482 44.4991L42.7559 44.4956L42.6646 44.4912L42.5744 44.486L42.4852 44.4798L42.397 44.4729L42.31 44.4651L42.224 44.4565L42.139 44.4472L42.0552 44.4371L41.9725 44.4262L41.8909 44.4145L41.8104 44.4022L41.7311 44.3891L41.6529 44.3754L41.5758 44.361L41.4999 44.3459L41.4252 44.3302L41.3516 44.3139L41.2792 44.2969L41.208 44.2794L41.138 44.2613L41.0692 44.2427L41.0016 44.2235L40.9352 44.2038L40.87 44.1836L40.8061 44.1629L40.7434 44.1417L40.6819 44.1201L40.6216 44.0981L40.5626 44.0756L40.5049 44.0528L40.4484 44.0296L40.3931 44.006L40.3391 43.9821L40.2864 43.9578L40.235 43.9333L40.1848 43.9084L40.1359 43.8833L40.0883 43.858L40.0419 43.8324L39.9968 43.8066L39.9531 43.7806L39.9106 43.7544L39.8694 43.728L39.8294 43.7015L39.7908 43.6749L39.7535 43.6482L39.7174 43.6214L39.6826 43.5945L39.6492 43.5676L39.617 43.5407L39.5861 43.5137L39.5565 43.4867L39.5282 43.4598L39.5012 43.4329L39.4755 43.406L39.451 43.3793L39.4279 43.3526L39.406 43.326L39.3854 43.2996L39.366 43.2733L39.348 43.2472L39.3312 43.2213L39.3157 43.1956L39.3015 43.1701L39.2885 43.1448L39.2767 43.1198L39.2663 43.0951L39.257 43.0706L39.249 43.0465L39.2423 43.0227L39.2368 42.9992L39.2325 42.9761L39.2294 42.9534L39.2276 42.9311L39.227 42.9092L39.2276 42.8877L39.2293 42.8667L39.2323 42.8461L39.2364 42.826L39.2418 42.8064L39.2483 42.7874L39.2559 42.7688L39.2648 42.7509L39.2747 42.7334L39.2858 42.7166L39.2981 42.7003L39.3114 42.6847L39.3259 42.6697L39.3415 42.6553L39.3582 42.6416L39.3759 42.6286L39.3948 42.6163L39.4147 42.6046L39.4357 42.5937L39.4577 42.5836L39.4807 42.5741L39.5048 42.5655L39.5299 42.5576L39.556 42.5505L39.5831 42.5443L39.6112 42.5388L39.6402 42.5342L39.6702 42.5305L39.7012 42.5276L39.7331 42.5256L39.7659 42.5245L39.7996 42.5243L39.8342 42.525L39.8697 42.5267L39.9061 42.5293L39.9433 42.5328L39.9814 42.5373L40.0203 42.5428L40.0601 42.5493L40.1006 42.5569L40.1419 42.5654L40.184 42.5749L40.2269 42.5855L40.2705 42.5972L40.3148 42.6099L40.3599 42.6237L40.4057 42.6386L40.4521 42.6546L40.4993 42.6717L40.5471 42.6899L40.5955 42.7092L40.6445 42.7297L40.6942 42.7513L40.7445 42.7741L40.7953 42.798L40.8468 42.8231L40.8987 42.8494L40.9512 42.8769L41.0042 42.9056L41.0577 42.9355L41.1117 42.9666L41.1662 42.9989L41.2211 43.0325L41.2764 43.0673L41.3322 43.1033L41.3883 43.1406L41.4449 43.1791L41.5017 43.219L41.559 43.2601L41.6166 43.3024L41.6744 43.3461L41.7326 43.391L41.791 43.4372L41.8498 43.4848L41.9087 43.5336L41.9679 43.5837L42.0272 43.6352L42.0868 43.688L42.1465 43.7421L42.2064 43.7975L42.2664 43.8542L42.3265 43.9123L42.3867 43.9717L42.447 44.0324L42.5073 44.0945L42.5677 44.158L42.6281 44.2227L42.6885 44.2888L42.7489 44.3563L42.8092 44.4251L42.8695 44.4953L42.9298 44.5668L42.9899 44.6396L43.0499 44.7138L43.1098 44.7894L43.1696 44.8663L43.2291 44.9446L43.2885 45.0242L43.3477 45.1052L43.4067 45.1875L43.4654 45.2711L43.5238 45.3561L43.582 45.4425L43.6399 45.5302L43.6975 45.6192L43.7547 45.7096L43.8116 45.8013L43.8681 45.8943L43.9242 45.9887L43.9799 46.0844L44.0352 46.1814L44.09 46.2797L44.1444 46.3793L44.1982 46.4803L44.2516 46.5825L44.3044 46.6861L44.3568 46.7909L44.4085 46.8971L44.4597 47.0045L44.5103 47.1132L44.5602 47.2231L44.6096 47.3344L44.6582 47.4469L44.7063 47.5606L44.7536 47.6756L44.8002 47.7918L44.8461 47.9093L44.8913 48.028L44.9357 48.1479L44.9794 48.269L45.0222 48.3913L45.0643 48.5148L45.1055 48.6394L45.1459 48.7653L45.1854 48.8923L45.2241 49.0204L45.2618 49.1497L45.2987 49.2802L45.3346 49.4118L45.3696 49.5444L45.4036 49.6782L45.4366 49.8131L45.4687 49.949L45.4997 50.0861L45.5298 50.2242L45.5588 50.3633L45.5867 50.5035L45.6136 50.6447L45.6393 50.7869L45.664 50.9301L45.6876 51.0743L45.71 51.2194L45.7313 51.3656L45.7514 51.5126L45.7704 51.6607L45.7882 51.8096L45.8047 51.9594L45.8201 52.1102L45.8342 52.2618L45.8471 52.4143L45.8587 52.5676L45.869 52.7218L45.8781 52.8768L45.8859 53.0326L45.8923 53.1892L45.8975 53.3465L45.9013 53.5047L45.9037 53.6635L45.9048 53.8231L45.9046 53.9835L45.9029 54.1445L45.8998 54.3062L45.8954 54.4685L45.8895 54.6316L45.8822 54.7952L45.8735 54.9595L45.8633 55.1243L45.8516 55.2898L45.8385 55.4558L45.8239 55.6223L45.8078 55.7894L45.7903 55.957L45.7712 56.1251L45.7506 56.2936L45.7284 56.4626L45.7047 56.6321L45.6795 56.802L45.6528 56.9722L45.6244 57.1429L45.5945 57.3139L45.5631 57.4853L45.53 57.657L45.4954 57.829L45.4591 58.0013L45.4213 58.1739L45.3818 58.3467L45.3408 58.5197L45.2981 58.693L45.2537 58.8664L45.2078 59.0401L45.1602 59.2139L45.1109 59.3878L45.06 59.5618L45.0075 59.7359L44.9533 59.9101L44.8974 60.0843L44.8399 60.2586L44.7807 60.4329L44.7198 60.6072L44.6572 60.7815L44.593 60.9557L44.5271 61.1298L44.4595 61.3039L44.3902 61.4778L44.3192 61.6516L44.2465 61.8253L44.1721 61.9988L44.0961 62.1721L44.0183 62.3451L43.9389 62.518L43.8577 62.6906L43.7748 62.8629L43.6903 63.0349L43.604 63.2066L43.5161 63.378L43.4265 63.549L43.3351 63.7196L43.2421 63.8899L43.1474 64.0597L43.051 64.229L42.9529 64.3979L42.8531 64.5663L42.7516 64.7343L42.6484 64.9016L42.5436 65.0685L42.4371 65.2347L42.3289 65.4004L42.2191 65.5655L42.1076 65.7299L41.9944 65.8937L41.8796 66.0569L41.7631 66.2193L41.645 66.381L41.5252 66.542L41.4038 66.7022L41.2808 66.8617L41.1561 67.0203L41.0298 67.1782L40.9019 67.3352L40.7724 67.4914L40.6414 67.6466L40.5087 67.801L40.3744 67.9545L40.2386 68.107L40.1012 68.2586L39.9622 68.4092L39.8217 68.5588L39.6796 68.7074L39.536 68.855L39.3909 69.0015L39.2442 69.1469L39.0961 69.2913L38.9464 69.4345L38.7953 69.5766L38.6427 69.7175L38.4886 69.8573L38.3331 69.9959L38.1761 70.1333L38.0177 70.2694L37.8579 70.4044L37.6967 70.538L37.534 70.6704L37.37 70.8015L37.2046 70.9312L37.0378 71.0597L36.8697 71.1867L36.7003 71.3125L36.5295 71.4368L36.3574 71.5597L36.184 71.6812L36.0094 71.8013L35.8334 71.9199L35.6562 72.037L35.4778 72.1527L35.2981 72.2668L35.1173 72.3795L34.9352 72.4905L34.752 72.6001L34.5675 72.7081L34.382 72.8145L34.1953 72.9193L34.0075 73.0224L33.8185 73.124L33.6285 73.2239L33.4374 73.3221L33.2453 73.4187L33.0521 73.5136L32.8579 73.6068L32.6627 73.6983L32.4665 73.788L32.2694 73.876L32.0713 73.9623L31.8722 74.0468L31.6723 74.1295L31.4714 74.2104L31.2697 74.2895L31.0671 74.3667L30.8637 74.4422L30.6594 74.5158L30.4543 74.5875L30.2485 74.6574L30.0419 74.7254L29.8345 74.7916L29.6264 74.8558L29.4176 74.9181L29.2081 74.9785L28.998 75.0369L28.7872 75.0934L28.5758 75.148L28.3637 75.2006L28.1511 75.2512L27.9379 75.2999L27.7241 75.3465L27.5099 75.3912L27.2951 75.4339L27.0798 75.4745L26.8641 75.5131L26.648 75.5497L26.4314 75.5843L26.2144 75.6168L25.997 75.6473L25.7793 75.6757L25.5612 75.7021L25.3428 75.7263L25.1242 75.7485L24.9052 75.7687L24.686 75.7867L24.4666 75.8027L24.247 75.8165L24.0272 75.8282L23.8072 75.8379L23.5871 75.8454L23.3669 75.8508L23.1466 75.8541L22.9262 75.8553L22.7058 75.8543L22.4853 75.8512L22.2649 75.846L22.0444 75.8387L21.824 75.8292L21.6037 75.8176L21.3834 75.8038L21.1632 75.7879L20.9432 75.7699L20.7234 75.7497L20.5037 75.7274L20.2842 75.7029L20.0649 75.6763L19.8459 75.6475L19.6271 75.6166L19.4087 75.5835L19.1905 75.5484L18.9727 75.511L18.7553 75.4715L18.5382 75.4299L18.3215 75.3862L18.1053 75.3403L17.8895 75.2923L17.6741 75.2421L17.4593 75.1899L17.245 75.1355L17.0312 75.079L16.818 75.0203L16.6054 74.9596L16.3934 74.8967L16.182 74.8318L15.9713 74.7647L15.7612 74.6956L15.5519 74.6244L15.3432 74.551L15.1353 74.4756L14.9282 74.3982L14.7219 74.3186L14.5163 74.2371L14.3116 74.1534L14.1077 74.0677L13.9048 73.98L13.7027 73.8903L13.5015 73.7985L13.3013 73.7047L13.102 73.6089L12.9037 73.5111L12.7064 73.4113L12.5102 73.3096L12.3149 73.2058L12.1208 73.1002L11.9277 72.9925L11.7358 72.8829L11.5449 72.7714L11.3552 72.658L11.1667 72.5426L10.9794 72.4254L10.7933 72.3063L10.6084 72.1852L10.4248 72.0624L10.2424 71.9377L10.0613 71.8111L9.88156 71.6827L9.70312 71.5525L9.52603 71.4205L9.35031 71.2867L9.17597 71.1511L9.00304 71.0137L8.83153 70.8746L8.66146 70.7338L8.49286 70.5912L8.32573 70.447L8.16009 70.301L7.99598 70.1533L7.83339 70.004L7.67236 69.8531L7.51289 69.7005L7.35501 69.5463L7.19872 69.3904L7.04406 69.233L6.89103 69.0741L6.73966 68.9135L6.58995 68.7515L6.44193 68.5879L6.29561 68.4228L6.151 68.2562L6.00813 68.0881L5.867 67.9186L5.72763 67.7476L5.59005 67.5753L5.45425 67.4015L5.32026 67.2263L5.1881 67.0498L5.05777 66.8719L4.92929 66.6927L4.80267 66.5122L4.67793 66.3304L4.55508 66.1473L4.43413 65.963L4.3151 65.7774L4.198 65.5906L4.08284 65.4027L3.96964 65.2135L3.8584 65.0232L3.74914 64.8318L3.64187 64.6392L3.53659 64.4455L3.43334 64.2508L3.3321 64.055L3.2329 63.8582L3.13574 63.6604L3.04064 63.4615L2.9476 63.2617L2.85664 63.061L2.76776 62.8593L2.68097 62.6567L2.59629 62.4532L2.51372 62.2489L2.43326 62.0437L2.35493 61.8377L2.27874 61.6308L2.2047 61.4232L2.1328 61.2149L2.06306 61.0058L1.99549 60.796L1.93009 60.5855L1.86687 60.3744L1.80584 60.1625L1.74699 59.9501L1.69035 59.7371L1.6359 59.5235L1.58367 59.3093L1.53365 59.0946L1.48584 58.8794L1.44026 58.6637L1.3969 58.4475L1.35578 58.2309L1.31689 58.0139L1.28024 57.7964L1.24582 57.5786L1.21366 57.3604L1.18374 57.142L1.15607 56.9232L1.13065 56.7041L1.10748 56.4848L1.08657 56.2652L1.06792 56.0454L1.05152 55.8254L1.03738 55.6053L1.0255 55.385L1.01588 55.1646L1.00852 54.9441L1.00342 54.7235L1.00058 54.5028L1 54.2822L1.00167 54.0615L1.00561 53.8409L1.01179 53.6202L1.02023 53.3997L1.03092 53.1792L1.04386 52.9589L1.05905 52.7387L1.07647 52.5186L1.09614 52.2987L1.11805 52.079L1.14219 51.8595L1.16856 51.6403L1.19716 51.4214L1.22797 51.2027L1.26101 50.9844L1.29626 50.7664L1.33371 50.5487L1.37337 50.3315L1.41522 50.1146L1.45926 49.8982L1.50549 49.6822L1.55389 49.4667L1.60447 49.2516L1.65721 49.0371L1.7121 48.8231L1.76915 48.6097L1.82834 48.3969L1.88967 48.1847L1.95312 47.973L2.01869 47.7621L2.08637 47.5518L2.15615 47.3422L2.22802 47.1332L2.30198 46.9251L2.37801 46.7176L2.4561 46.511L2.53625 46.3051L2.61844 46.1L2.70266 45.8958L2.78891 45.6924L2.87717 45.4899L2.96742 45.2883L3.05967 45.0876L3.1539 44.8879L3.25009 44.689L3.34823 44.4912L3.44832 44.2943L3.55034 44.0985L3.65427 43.9037L3.76011 43.7099L3.86783 43.5172L3.97744 43.3256L4.08891 43.135L4.20223 42.9456L4.31739 42.7574L4.43437 42.5703L4.55316 42.3844L4.67374 42.1996L4.7961 42.0161L4.92023 41.8338L5.04611 41.6527L5.17372 41.4729L5.30305 41.2944L5.43408 41.1172L5.5668 40.9413L5.70119 40.7667L5.83724 40.5934L5.97493 40.4215L6.11424 40.251L6.25516 40.0819L6.39766 39.9142L6.54174 39.7478L6.68738 39.583L6.83455 39.4195L6.98325 39.2576L7.13344 39.0971L7.28512 38.9381L7.43827 38.7806L7.59287 38.6246L7.74891 38.4702L7.90635 38.3173L8.06519 38.1659L8.2254 38.0162L8.38698 37.868L8.54989 37.7214L8.71412 37.5764L8.87965 37.433L9.04646 37.2912L9.21453 37.1511L9.38384 37.0127L9.55438 36.8759L9.72612 36.7408L9.89905 36.6073L10.0731 36.4756L10.2484 36.3456L10.4247 36.2172L10.6022 36.0906L10.7807 35.9658L10.9603 35.8426L11.141 35.7212L11.3226 35.6016L11.5053 35.4838L11.6889 35.3677L11.8735 35.2534L12.0591 35.1409L12.2455 35.0301L12.4329 34.9212L12.6211 34.8141L12.8102 34.7088L13.0001 34.6054L13.1908 34.5037L13.3823 34.404L13.5746 34.306L13.7676 34.2099L13.9614 34.1156L14.1559 34.0232L14.351 33.9327L14.5468 33.844L14.7432 33.7572L14.9403 33.6722L15.1379 33.5892L15.3362 33.508L15.5349 33.4287L15.7342 33.3513L15.9341 33.2758L16.1343 33.2021L16.3351 33.1304L16.5363 33.0605L16.7379 32.9925L16.94 32.9265L17.1424 32.8623L17.3451 32.8L17.5482 32.7397L17.7516 32.6812L17.9553 32.6246L18.1593 32.5699L18.3635 32.5172L18.5679 32.4663L18.7726 32.4173L18.9774 32.3702L19.1823 32.325L19.3875 32.2817L19.5927 32.2403L19.798 32.2007L20.0034 32.1631L20.2089 32.1273L20.4143 32.0934L20.6198 32.0614L20.8253 32.0313L21.0307 32.003L21.2361 31.9766L21.4414 31.952L21.6467 31.9293L21.8518 31.9085L22.0567 31.8895L22.2615 31.8723L22.4661 31.857L22.6705 31.8435L22.8747 31.8318L23.0787 31.8219L23.2824 31.8139L23.4858 31.8076L23.6889 31.8032L23.8917 31.8005L24.0941 31.7996L24.2962 31.8005L24.4979 31.8032L24.6992 31.8076L24.9 31.8138L25.1005 31.8217L25.3004 31.8313L25.4999 31.8427L25.6989 31.8558L25.8974 31.8706L26.0953 31.8871L26.2927 31.9052L26.4895 31.9251L26.6857 31.9466L26.8812 31.9698L27.0762 31.9946L27.2705 32.021L27.4642 32.0491L27.6571 32.0788L27.8494 32.1101L28.041 32.143L28.2318 32.1774L28.4218 32.2134L28.6111 32.251L28.7996 32.2901L28.9873 32.3307L29.1742 32.3729L29.3602 32.4166L29.5454 32.4617L29.7297 32.5083L29.9132 32.5564L30.0957 32.6059L30.2773 32.6569L30.458 32.7093L30.6378 32.7631L30.8166 32.8183L30.9944 32.8748L31.1712 32.9328L31.347 32.992L31.5218 33.0526L31.6955 33.1146L31.8683 33.1778L32.0399 33.2423L32.2105 33.3081L32.38 33.3751L32.5484 33.4434L32.7157 33.5129L32.8818 33.5836L33.0469 33.6556L33.2107 33.7286L33.3734 33.8029L33.535 33.8783L33.6953 33.9548L33.8545 34.0324L34.0124 34.1111L34.1692 34.1909L34.3247 34.2717L34.4789 34.3536L34.6319 34.4365L34.7837 34.5203L34.9342 34.6052L35.0834 34.6911L35.2313 34.7779L35.3779 34.8656L35.5232 34.9543L35.6672 35.0438L35.8099 35.1342L35.9513 35.2255L36.0913 35.3176L36.2299 35.4106L36.3672 35.5043L36.5032 35.5988L36.6378 35.6941L36.7709 35.7902L36.9028 35.887L37.0332 35.9844L37.1622 36.0826L37.2899 36.1815L37.4161 36.2809L37.5409 36.3811L37.6643 36.4818L37.7863 36.5831L37.9068 36.6851L38.0259 36.7875L38.1436 36.8905L38.2599 36.994L38.3747 37.0981L38.488 37.2026L38.5999 37.3075L38.7104 37.4129L38.8194 37.5187L38.9269 37.6249L39.033 37.7315L39.1376 37.8385L39.2408 37.9458L39.3425 38.0534L39.4427 38.1613L39.5415 38.2695L39.6388 38.3779L39.7346 38.4866L39.8289 38.5956L39.9218 38.7047L40.0132 38.814L40.1032 38.9235L40.1917 39.0331L40.2787 39.1429L40.3643 39.2527L40.4483 39.3627L40.531 39.4727L40.6121 39.5828L40.6918 39.6929L40.7701 39.803L40.8469 39.9131L40.9222 40.0231L40.9961 40.1331L41.0686 40.2431L41.1396 40.353L41.2092 40.4627L41.2773 40.5724L41.3441 40.6819L41.4094 40.7912L41.4732 40.9004L41.5357 41.0093L41.5968 41.1181L41.6564 41.2266L41.7147 41.3348L41.7715 41.4428L41.827 41.5505L41.8811 41.6579L41.9338 41.765L41.9851 41.8717L42.0351 41.9781L42.0838 42.084L42.1311 42.1896L42.177 42.2948L42.2217 42.3995L42.265 42.5038L42.307 42.6077L42.3476 42.711L42.387 42.8139L42.4251 42.9162L42.462 43.018L42.4975 43.1192L42.5318 43.2199L42.5648 43.32L42.5966 43.4195L42.6272 43.5184L42.6566 43.6167L42.6847 43.7143L42.7117 43.8113L42.7374 43.9076L42.762 44.0032L42.7854 44.098L42.8077 44.1922L42.8288 44.2856L42.8488 44.3783L42.8676 44.4702L42.8854 44.5613L42.9021 44.6517L42.9176 44.7412L42.9321 44.8299L42.9456 44.9178L42.958 45.0048L42.9694 45.091L42.9797 45.1763L42.9891 45.2607L42.9975 45.3442L43.0049 45.4268L43.0113 45.5085L43.0168 45.5892L43.0213 45.669L43.0249 45.7478L43.0276 45.8256L43.0295 45.9025L43.0304 45.9784L43.0305 46.0532L43.0297 46.1271L43.0281 46.1999L43.0257 46.2717L43.0225 46.3424L43.0185 46.4121L43.0137 46.4807L43.0082 46.5482L43.0019 46.6146L42.995 46.6799L42.9873 46.7442L42.9789 46.8073L42.9698 46.8693L42.9601 46.9302L42.9498 46.9899L42.9388 47.0485L42.9272 47.1059L42.9151 47.1621L42.9023 47.2172L42.889 47.2711L42.8752 47.3239L42.8608 47.3754L42.8459 47.4258L42.8306 47.4749L42.8147 47.5228L42.7985 47.5695L42.7817 47.615L42.7646 47.6593L42.7471 47.7024L42.7291 47.7442L42.7108 47.7847L42.6922 47.824L42.6732 47.8621L42.654 47.8989L42.6344 47.9345L42.6146 47.9688L42.5945 48.0019L42.5741 48.0337L42.5535 48.0642L42.5328 48.0934L42.5118 48.1214L42.4907 48.1481L42.4694 48.1735L42.448 48.1977L42.4265 48.2206L42.4049 48.2422L42.3832 48.2625L42.3615 48.2815L42.3397 48.2993L42.3179 48.3157L42.2961 48.3309L42.2743 48.3448L42.2525 48.3574L42.2308 48.3688L42.2091 48.3789L42.1876 48.3877L42.1661 48.3952L42.1448 48.4014L42.1236 48.4064L42.1026 48.4101L42.0817 48.4126L42.0611 48.4138L42.0406 48.4137L42.0204 48.4123L42.0005 48.4097L41.9808 48.4059L41.9614 48.4008L41.9423 48.3945L41.9235 48.3869L41.905 48.3781L41.887 48.3681L41.8692 48.3569L41.8519 48.3444L41.835 48.3307L41.8185 48.3158L41.8024 48.2997L41.7868 48.2825L41.7717 48.264L41.7571 48.2443L41.743 48.2235L41.7294 48.2015L41.7163 48.1784L41.7039 48.1541L41.6919 48.1286L41.6806 48.1021L41.6699 48.0743L41.6598 48.0455L41.6504 48.0156L41.6416 47.9845L41.6335 47.9524L41.6261 47.9192L41.6194 47.8849L41.6134 47.8495L41.6081 47.8131L41.6036 47.7756L41.5998 47.7371L41.5969 47.6976L41.5947 47.6571L41.5933 47.6155L41.5928 47.573L41.5931 47.5295L41.5943 47.485L41.5963 47.4395L41.5992 47.3932L41.603 47.3458L41.6077 47.2976L41.6133 47.2484L41.6199 47.1984L41.6274 47.1474L41.6359 47.0956L41.6454 47.043L41.6558 46.9894L41.6673 46.9351L41.6797 46.8799L41.6932 46.824L41.7077 46.7672L41.7233 46.7097L41.7399 46.6513L41.7576 46.5923L41.7764 46.5325L41.7963 46.472L41.8173 46.4108L41.8394 46.3489L41.8626 46.2863L41.887 46.2231L41.9125 46.1592L41.9392 46.0947L41.967 46.0296L41.9961 45.9639L42.0263 45.8976L42.0577 45.8307L42.0903 45.7633L42.1241 45.6953L42.1592 45.6269L42.1954 45.5579L42.2329 45.4884L42.2717 45.4185L42.3117 45.3482L42.353 45.2774L42.3956 45.2061L42.4394 45.1345L42.4845 45.0625L42.5309 44.9902L42.5786 44.9175L42.6276 44.8444L42.6779 44.7711L42.7295 44.6974L42.7825 44.6235L42.8368 44.5494L42.8924 44.4749L42.9493 44.4003L43.0076 44.3255L43.0672 44.2504L43.1282 44.1752L43.1905 44.0999L43.2542 44.0244L43.3193 43.9488L43.3857 43.8731L43.4534 43.7974L43.5226 43.7216L43.5931 43.6457L43.665 43.5699L43.7383 43.494L43.8129 43.4181L43.889 43.3423L43.9664 43.2666L44.0452 43.1909L44.1254 43.1153L44.2069 43.0398L44.2899 42.9644L44.3742 42.8892L44.46 42.8142L44.5471 42.7394L44.6356 42.6647L44.7254 42.5903L44.8167 42.5162L44.9094 42.4423L45.0034 42.3687L45.0988 42.2954L45.1956 42.2224L45.2937 42.1497L45.3932 42.0774L45.4941 42.0055L45.5964 41.934L45.7 41.8629L45.805 41.7922L45.9114 41.722L46.0191 41.6523L46.1281 41.583L46.2385 41.5143L46.3502 41.4461L46.4633 41.3784L46.5777 41.3113L46.6934 41.2448L46.8104 41.1789L46.9288 41.1136L47.0484 41.049L47.1694 40.985L47.2916 40.9217L47.4152 40.8591L47.54 40.7972L47.6661 40.736L47.7935 40.6756L47.9221 40.616L48.052 40.5571L48.1831 40.499L48.3154 40.4418L48.449 40.3854L48.5838 40.3298L48.7198 40.2751L48.857 40.2214L48.9954 40.1685L49.1349 40.1165L49.2757 40.0655L49.4176 40.0154L49.5606 39.9664L49.7048 39.9183L49.8501 39.8712L49.9965 39.8251L50.1441 39.7801L50.2927 39.7362L50.4424 39.6933L50.5932 39.6515L50.745 39.6108L50.8979 39.5712L51.0519 39.5328L51.2068 39.4955L51.3628 39.4594L51.5197 39.4245L51.6777 39.3908L51.8366 39.3582L51.9965 39.3269L52.1573 39.2969L52.319 39.2681L52.4817 39.2406L52.6452 39.2143L52.8097 39.1894L52.975 39.1657L53.1412 39.1434L53.3082 39.1224L53.476 39.1028L53.6447 39.0845L53.8141 39.0677L53.9843 39.0522L54.1553 39.0381L54.327 39.0254L54.4995 39.0141L54.6727 39.0043L54.8466 38.996L55.0211 38.9891L55.1964 38.9836L55.3722 38.9797L55.5487 38.9772L55.7259 38.9763L55.9036 38.9769L56.0819 38.979L56.2607 38.9826L56.4401 38.9878L56.62 38.9945L56.8005 39.0028L56.9814 39.0127L57.1628 39.0242L57.3446 39.0373L57.5269 39.0519L57.7096 39.0682L57.8927 39.0861L58.0761 39.1056L58.2599 39.1268L58.4441 39.1496L58.6286 39.174L58.8134 39.2001L58.9984 39.2279L59.1837 39.2573L59.3693 39.2884L59.5551 39.3213L59.741 39.3557L59.9272 39.3919L60.1135 39.4298L60.3 39.4694L60.4866 39.5107L60.6733 39.5537L60.86 39.5985L61.0469 39.6449L61.2337 39.6931L61.4206 39.743L61.6075 39.7947L61.7943 39.8481L61.9812 39.9033L62.1679 39.9601L62.3546 40.0188L62.5411 40.0792L62.7276 40.1413L62.9139 40.2052L63.1 40.2709L63.2859 40.3383L63.4716 40.4075L63.6571 40.4784L63.8423 40.5511L64.0273 40.6256L64.212 40.7018L64.3963 40.7798L64.5803 40.8595L64.764 40.941L64.9472 41.0243L65.1301 41.1093L65.3126 41.1961L65.4946 41.2846L65.6761 41.3749L65.8572 41.4669L66.0377 41.5607L66.2177 41.6563L66.3972 41.7536L66.5761 41.8526L66.7544 41.9533L66.9321 42.0558L67.1091 42.1601L67.2855 42.266L67.4612 42.3737L67.6363 42.4831L67.8106 42.5942L67.9841 42.707L68.1569 42.8215L68.3289 42.9378L68.5002 43.0557L68.6706 43.1753L68.8401 43.2965L69.0088 43.4195L69.1766 43.5441L69.3435 43.6704L69.5095 43.7983L69.6745 43.9278L69.8386 44.059L70.0017 44.1919L70.1637 44.3263L70.3248 44.4624L70.4848 44.6L70.6437 44.7393L70.8016 44.8801L70.9583 45.0226L71.1139 45.1665L71.2684 45.3121L71.4217 45.4592L71.5738 45.6078L71.7247 45.7579L71.8744 45.9096L72.0229 46.0627L72.1701 46.2174L72.316 46.3735L72.4606 46.5311L72.6039 46.6902L72.7459 46.8507L72.8866 47.0126L73.0258 47.176L73.1637 47.3407L73.3001 47.5069L73.4352 47.6744L73.5688 47.8433L73.7009 48.0136L73.8316 48.1852L73.9608 48.3581L74.0884 48.5323L74.2146 48.7078L74.3392 48.8846L74.4622 49.0627L74.5837 49.242L74.7036 49.4226L74.8218 49.6044L74.9385 49.7874L75.0535 49.9715L75.1668 50.1569L75.2785 50.3434L75.3885 50.5311L75.4968 50.7198L75.6034 50.9097L75.7083 51.1007L75.8114 51.2927L75.9128 51.4858L76.0124 51.68L76.1102 51.8752L76.2062 52.0713L76.3004 52.2685L76.3928 52.4666L76.4833 52.6657L76.572 52.8657L76.6588 53.0666L76.7438 53.2684L76.8269 53.4711L76.908 53.6746L76.9873 53.879L77.0646 54.0842L77.14 54.2902L77.2135 54.497L77.285 54.7045L77.3546 54.9128L77.4221 55.1218L77.4877 55.3315L77.5513 55.5418L77.6129 55.7529L77.6724 55.9645L77.73 56.1768L77.7855 56.3897L77.839 56.6031L77.8904 56.8171L77.9397 57.0317L77.987 57.2467L78.0322 57.4623L78.0754 57.6783L78.1164 57.8947L78.1553 58.1116L78.1922 58.3289L78.2269 58.5466L78.2595 58.7646L78.29 58.983L78.3184 59.2017L78.3446 59.4207L78.3687 59.64L78.3906 59.8595L78.4104 60.0793L78.4281 60.2992L78.4436 60.5194L78.4569 60.7397L78.468 60.9601L78.477 61.1807L78.4838 61.4013L78.4884 61.6221L78.4909 61.8429L78.4912 62.0637L78.4893 62.2845L78.4852 62.5053L78.4789 62.726L78.4704 62.9467L78.4597 63.1673L78.4468 63.3878L78.4318 63.6082L78.4145 63.8284L78.3951 64.0485L78.3735 64.2683L78.3496 64.4879L78.3236 64.7073L78.2954 64.9263L78.265 65.1452L78.2324 65.3636L78.1976 65.5818L78.1606 65.7996L78.1215 66.017L78.0801 66.234L78.0366 66.4505L77.9909 66.6667L77.943 66.8823L77.893 67.0975L77.8408 67.3121L77.7864 67.5262L77.7299 67.7397L77.6712 67.9526L77.6104 68.1649L77.5474 68.3766L77.4823 68.5876L77.415 68.798L77.3457 69.0076L77.2742 69.2166L77.2006 69.4247L77.1248 69.6322L77.047 69.8388L76.9671 70.0446L76.8851 70.2496L76.801 70.4537L76.7148 70.657L76.6266 70.8593L76.5363 71.0608L76.4439 71.2613L76.3496 71.4608L76.2532 71.6593L76.1547 71.8569L76.0543 72.0534L75.9518 72.2489L75.8474 72.4433L75.741 72.6366L75.6326 72.8288L75.5222 73.0199L75.4099 73.2098L75.2957 73.3986L75.1795 73.5861L75.0614 73.7725L74.9414 73.9576L74.8195 74.1415L74.6957 74.3241L74.5701 74.5054L74.4426 74.6854L74.3132 74.8641L74.182 75.0414L74.049 75.2174L73.9142 75.3919L73.7776 75.5651L73.6393 75.7369L73.4992 75.9072L73.3573 76.076L73.2137 76.2434L73.0684 76.4093L72.9213 76.5736L72.7726 76.7365L72.6222 76.8978L72.4702 77.0575L72.3165 77.2156L72.1612 77.3722L72.0043 77.5271L71.8458 77.6804L71.6857 77.8321L71.5241 77.9821L71.3609 78.1304L71.1962 78.277L71.0299 78.4219L70.8622 78.5651L70.693 78.7065L70.5224 78.8462L70.3503 78.9841L70.1768 79.1202L70.0019 79.2545L69.8256 79.3871L69.648 79.5177L69.469 79.6466L69.2887 79.7736L69.1071 79.8987L68.9242 80.0219L68.74 80.1433L68.5545 80.2627L68.3679 80.3802L68.18 80.4958L67.991 80.6095L67.8007 80.7212L67.6093 80.8309L67.4168 80.9386L67.2232 81.0444L67.0285 81.1482L66.8327 81.2499L66.6359 81.3496L66.438 81.4473L66.2392 81.543L66.0393 81.6366L65.8385 81.7282L65.6368 81.8177L65.4341 81.9051L65.2306 81.9904L65.0261 82.0736L64.8208 82.1547L64.6147 82.2338L64.4077 82.3107L64.2 82.3854L63.9915 82.4581L63.7822 82.5286L63.5723 82.5969L63.3616 82.6631L63.1502 82.7272L62.9382 82.7891L62.7256 82.8488L62.5123 82.9063L62.2985 82.9617L62.084 83.0148L61.8691 83.0658L61.6536 83.1146L61.4376 83.1612L61.2212 83.2056L61.0042 83.2478L60.7869 83.2877L60.5692 83.3255L60.351 83.361L60.1325 83.3944L59.9137 83.4255L59.6946 83.4544L59.4751 83.481L59.2554 83.5055L59.0355 83.5277L58.8153 83.5476L58.5949 83.5654L58.3743 83.5809L58.1536 83.5942L57.9328 83.6053L57.7118 83.6141L57.4908 83.6207L57.2697 83.6251L57.0486 83.6273L56.8274 83.6272L56.6063 83.6249L56.3851 83.6204L56.1641 83.6137L55.9431 83.6047L55.7222 83.5936L55.5014 83.5802L55.2808 83.5646L55.0603 83.5468L54.84 83.5268L54.62 83.5046L54.4002 83.4803L54.1806 83.4537L53.9613 83.4249L53.7423 83.394L53.5237 83.3609L53.3053 83.3256L53.0874 83.2882L52.8698 83.2486L52.6527 83.2069L52.436 83.163L52.2197 83.117L52.0039 83.0688L51.7887 83.0186L51.5739 82.9662L51.3597 82.9117L51.146 82.8551L50.933 82.7964L50.7205 82.7356L50.5087 82.6728L50.2975 82.6079L50.087 82.5409L49.8772 82.4719L49.6681 82.4008L49.4597 82.3277L49.2521 82.2526L49.0452 82.1755L48.8391 82.0964L48.6339 82.0153L48.4295 81.9323L48.2259 81.8472L48.0232 81.7602L47.8214 81.6713L47.6205 81.5805L47.4206 81.4877L47.2216 81.393L47.0235 81.2964L46.8265 81.198L46.6304 81.0976L46.4354 80.9955L46.2414 80.8914L46.0485 80.7856L45.8567 80.6779L45.6659 80.5685L45.4763 80.4572L45.2878 80.3442L45.1004 80.2294L44.9142 80.1129L44.7292 79.9946L44.5454 79.8747L44.3628 79.753L44.1815 79.6297L44.0013 79.5046L43.8225 79.378L43.6449 79.2497L43.4687 79.1198L43.2937 78.9882L43.1201 78.8551L42.9478 78.7204L42.7769 78.5842L42.6073 78.4464L42.4391 78.3071L42.2723 78.1663L42.107 78.0241L41.943 77.8803L41.7805 77.7351L41.6195 77.5885L41.4599 77.4404L41.3019 77.291L41.1453 77.1402L40.9902 76.988L40.8366 76.8345L40.6846 76.6796L40.5341 76.5235L40.3851 76.3661L40.2378 76.2074L40.092 76.0474L39.9478 75.8863L39.8051 75.7239L39.6641 75.5603L39.5248 75.3956L39.387 75.2297L39.2509 75.0627L39.1164 74.8946L38.9836 74.7253L38.8525 74.5551L38.723 74.3837L38.5953 74.2114L38.4692 74.038L38.3448 73.8636L38.2221 73.6883L38.1012 73.512L37.982 73.3348L37.8645 73.1567L37.7487 72.9777L37.6347 72.7978L37.5224 72.6171L37.4119 72.4356L37.3032 72.2533L37.1962 72.0702L37.091 71.8863L36.9876 71.7017L36.886 71.5163L36.7862 71.3303L36.6881 71.1436L36.5919 70.9563L36.4975 70.7683L36.4048 70.5797L36.314 70.3905L36.225 70.2008L36.1378 70.0105L36.0525 69.8196L35.9689 69.6283L35.8872 69.4365L35.8073 69.2442L35.7292 69.0515L35.653 68.8584L35.5786 68.6649L35.506 68.471L35.4352 68.2768L35.3663 68.0822L35.2992 67.8873L35.234 67.6921L35.1706 67.4967L35.109 67.301L35.0492 67.1051L34.9913 66.909L34.9352 66.7127L34.8809 66.5162L34.8284 66.3196L34.7778 66.1229L34.729 65.9261L34.682 65.7292L34.6368 65.5323L34.5935 65.3353L34.5519 65.1383L34.5122 64.9414L34.4742 64.7444L34.438 64.5475L34.4037 64.3507L34.3711 64.154L34.3403 63.9574L34.3113 63.7609L34.2841 63.5646L34.2586 63.3684L34.2349 63.1725L34.2129 62.9767L34.1927 62.7812L34.1743 62.586L34.1576 62.391L34.1426 62.1963L34.1293 62.0019L34.1177 61.8079L34.1079 61.6142L34.0998 61.4209L34.0933 61.228L34.0885 61.0355L34.0854 60.8434L34.084 60.6518L34.0842 60.4607L34.0861 60.27L34.0896 60.0798L34.0948 59.8902L34.1016 59.7011L34.1099 59.5126L34.1199 59.3246L34.1315 59.1373L34.1446 58.9506L34.1594 58.7644L34.1756 58.579L34.1935 58.3942L34.2128 58.2101L34.2337 58.0267L34.2561 57.844L34.28 57.6621L34.3053 57.4809L34.3322 57.3005L34.3605 57.1208L34.3903 56.942L34.4215 56.764L34.4541 56.5868L34.4881 56.4104L34.5236 56.235L34.5604 56.0604L34.5986 55.8867L34.6381 55.7139L34.679 55.542L34.7212 55.3711L34.7647 55.2011L34.8096 55.0321L34.8557 54.8641L34.903 54.697L34.9517 54.531L35.0016 54.366L35.0526 54.2021L35.1049 54.0391L35.1584 53.8773L35.2131 53.7165L35.2689 53.5568L35.3259 53.3982L35.384 53.2407L35.4432 53.0843L35.5035 52.9291L35.5649 52.775L35.6274 52.6221L35.6909 52.4703L35.7554 52.3197L35.8209 52.1703L35.8875 52.0221L35.955 51.8751L36.0235 51.7293L36.0929 51.5848L36.1632 51.4415L36.2345 51.2994L36.3066 51.1586L36.3796 51.0191L36.4534 50.8808L36.5281 50.7438L36.6036 50.6081L36.68 50.4737L36.757 50.3406L36.8349 50.2088L36.9135 50.0783L36.9928 49.9492L37.0728 49.8214L37.1536 49.6949L37.235 49.5698L37.317 49.446L37.3997 49.3236L37.483 49.2025L37.5668 49.0828L37.6513 48.9645L37.7363 48.8476L37.8218 48.732L37.9079 48.6178L37.9945 48.5051L38.0815 48.3937L38.169 48.2837L38.257 48.1751L38.3454 48.0679L38.4341 47.9621L38.5233 47.8578L38.6128 47.7548L38.7027 47.6533L38.7929 47.5532L38.8834 47.4544L38.9742 47.3572L39.0652 47.2613L39.1565 47.1668L39.2481 47.0738L39.3398 46.9822L39.4317 46.892L39.5239 46.8033L39.6161 46.7159L39.7085 46.63L39.801 46.5455L39.8936 46.4625L39.9863 46.3808L40.079 46.3006L40.1718 46.2217L40.2646 46.1443L40.3574 46.0683L40.4502 45.9937L40.5429 45.9206L40.6356 45.8488L40.7282 45.7784L40.8207 45.7094L40.9131 45.6418L41.0053 45.5756L41.0974 45.5108L41.1894 45.4474L41.2811 45.3853L41.3727 45.3246L41.464 45.2653L41.5551 45.2073L41.6459 45.1507L41.7364 45.0955L41.8267 45.0416L41.9166 44.989L42.0062 44.9378L42.0955 44.8878L42.1843 44.8392L42.2728 44.792L42.3609 44.746L42.4486 44.7013L42.5358 44.6579L42.6226 44.6158L42.7089 44.575L42.7947 44.5354L42.8801 44.4971L42.9649 44.46L43.0491 44.4242L43.1328 44.3896L43.216 44.3562L43.2985 44.324L43.3805 44.293L43.4618 44.2633L43.5425 44.2347L43.6225 44.2073L43.7019 44.181L43.7806 44.1559L43.8586 44.1319L43.9359 44.1091L44.0125 44.0873L44.0883 44.0667L44.1634 44.0472L44.2377 44.0288L44.3113 44.0114L44.384 43.9951L44.4559 43.9798L44.527 43.9656L44.5973 43.9524L44.6667 43.9401L44.7353 43.9289L44.8029 43.9187L44.8697 43.9094L44.9356 43.9011L45.0006 43.8938L45.0646 43.8873L45.1277 43.8818L45.1898 43.8772L45.251 43.8735L45.3112 43.8706L45.3705 43.8686L45.4287 43.8674L45.4859 43.8671L45.5421 43.8676L45.5973 43.8689L45.6514 43.8709L45.7045 43.8737L45.7565 43.8773L45.8075 43.8816L45.8573 43.8867L45.9061 43.8924L45.9538 43.8988L46.0004 43.9059L46.0459 43.9137L46.0902 43.9221L46.1334 43.9311L46.1755 43.9408L46.2164 43.951L46.2562 43.9618L46.2948 43.9732L46.3323 43.9851L46.3685 43.9975L46.4036 44.0104L46.4375 44.0239L46.4702 44.0378L46.5017 44.0521L46.5319 44.0669L46.561 44.0822L46.5889 44.0978L46.6155 44.1138L46.6409 44.1302L46.665 44.1469L46.688 44.164L46.7096 44.1814L46.7301 44.1991L46.7492 44.217L46.7672 44.2353L46.7838 44.2537L46.7992 44.2724L46.8134 44.2914L46.8262 44.3105L46.8378 44.3297L46.8482 44.3492L46.8572 44.3688L46.865 44.3885L46.8715 44.4082L46.8768 44.4281L46.8807 44.4481L46.8834 44.4681L46.8848 44.4881L46.8849 44.5081L46.8838 44.5281L46.8813 44.5481L46.8776 44.5681L46.8726 44.588L46.8663 44.6078L46.8588 44.6275L46.85 44.6471L46.8399 44.6666L46.8285 44.6859L46.8158 44.705L46.8019 44.724L46.7868 44.7427L46.7703 44.7612L46.7526 44.7795L46.7337 44.7975L46.7135 44.8153L46.6921 44.8327L46.6694 44.8499L46.6454 44.8667L46.6203 44.8831L46.5939 44.8992L46.5663 44.9149L46.5374 44.9302L46.5074 44.9451L46.4761 44.9595L46.4436 44.9735L46.41 44.987L46.3751 45L46.3391 45.0126L46.3018 45.0246L46.2635 45.036L46.2239 45.0469L46.1832 45.0573L46.1413 45.067L46.0983 45.0762L46.0542 45.0847L46.0089 45.0926L45.9625 45.0998L45.9151 45.1064L45.8665 45.1122L45.8168 45.1174L45.766 45.1218L45.7142 45.1256L45.6613 45.1285L45.6074 45.1307L45.5524 45.1322L45.4964 45.1328L45.4394 45.1326L45.3813 45.1316L45.3223 45.1297L45.2623 45.127L45.2012 45.1235L45.1393 45.119L45.0764 45.1137L45.0125 45.1074L44.9477 45.1002L44.882 45.0921L44.8154 45.083L44.7479 45.0729L44.6795 45.0619L44.6102 45.0499L44.5401 45.0369L44.4692 45.0228L44.3974 45.0077L44.3248 44.9916L44.2514 44.9745L44.1773 44.9562L44.1023 44.9369L44.0266 44.9165L43.9502 44.8949L43.873 44.8723L43.7951 44.8486L43.7166 44.8237L43.6373 44.7976L43.5574 44.7704L43.4768 44.742L43.3956 44.7125L43.3137 44.6817L43.2313 44.6498L43.1483 44.6166L43.0647 44.5823L42.9805 44.5466L42.8958 44.5098L42.8106 44.4717L42.7249 44.4324L42.6386 44.3918L42.5519 44.3499L42.4648 44.3068L42.3772 44.2623L42.2892 44.2166L42.2008 44.1695L42.112 44.1212L42.0228 44.0715L41.9332 44.0205L41.8434 43.9682L41.7532 43.9145L41.6627 43.8595L41.5719 43.8032L41.4809 43.7455L41.3896 43.6864L41.2981 43.626L41.2064 43.5641L41.1145 43.501L41.0224 43.4364L40.9302 43.3705L40.8378 43.3031L40.7453 43.2344L40.6527 43.1643L40.5601 43.0928L40.4674 43.0198L40.3746 42.9455L40.2818 42.8698L40.189 42.7926L40.0962 42.7141L40.0035 42.6341L39.9108 42.5527L39.8182 42.4699L39.7256 42.3856L39.6332 42.3L39.5409 42.2129L39.4488 42.1244L39.3568 42.0345L39.2651 41.9432L39.1735 41.8504L39.0821 41.7562L38.991 41.6606L38.9002 41.5636L38.8096 41.4652L38.7194 41.3653L38.6294 41.264L38.5399 41.1613L38.4506 41.0572L38.3618 40.9517L38.2733 40.8448L38.1853 40.7365L38.0977 40.6267L38.0106 40.5156L37.9239 40.4031L37.8378 40.2892L37.7521 40.1739L37.667 40.0572L37.5824 39.9391L37.4985 39.8197L37.4151 39.6989L37.3323 39.5767L37.2501 39.4532L37.1686 39.3283L37.0878 39.2021L37.0076 39.0745L36.9281 38.9456L36.8494 38.8154L36.7714 38.6838L36.6942 38.551L36.6177 38.4168L36.5421 38.2814L36.4672 38.1446L36.3932 38.0066L36.32 37.8673L36.2477 37.7267L36.1763 37.5849L36.1058 37.4418L36.0363 37.2975L35.9676 37.1519L35.8999 37.0051L35.8332 36.8572L35.7675 36.708L35.7028 36.5576L35.6391 36.4061L35.5764 36.2533L35.5148 36.0995L35.4543 35.9444L35.3949 35.7883L35.3366 35.631L35.2794 35.4726L35.2234 35.3131L35.1685 35.1525L35.1148 34.9908L35.0622 34.8281L35.0109 34.6644L34.9608 34.4995L34.912 34.3337L34.8644 34.1669L34.818 33.999L34.7729 33.8302L34.7292 33.6604L34.6867 33.4896L34.6456 33.3179L34.6058 33.1453L34.5674 32.9718L34.5303 32.7974L34.4946 32.622L34.4603 32.4459L34.4274 32.2688L34.3959 32.091L34.3659 31.9123L34.3373 31.7328L34.3102 31.5525L34.2846 31.3715L34.2604 31.1897L34.2377 31.0071L34.2166 30.8238L34.1969 30.6399L34.1788 30.4552L34.1623 30.2699L34.1472 30.0839L34.1338 29.8973L34.1219 29.71L34.1117 29.5222L34.103 29.3338L34.0959 29.1448L34.0905 28.9552L34.0867 28.7652L34.0845 28.5746L34.0839 28.3836L34.085 28.192L34.0878 28L34.0923 27.8076L34.0984 27.6148L34.1063 27.4215L34.1158 27.2279L34.127 27.034L34.14 26.8397L34.1547 26.645L34.1711 26.4501L34.1892 26.2549L34.2091 26.0594L34.2307 25.8637L34.2541 25.6678L34.2792 25.4717L34.3061 25.2754L34.3348 25.079L34.3653 24.8824L34.3975 24.6857L34.4315 24.4889L34.4674 24.292L34.505 24.095L34.5444 23.8981L34.5856 23.7011L34.6287 23.5041L34.6735 23.3072L34.7201 23.1103L34.7686 22.9135L34.8189 22.7167L34.871 22.5201L34.925 22.3236L34.9807 22.1273L35.0383 21.9312L35.0977 21.7352L35.159 21.5395L35.2221 21.344L35.287 21.1488L35.3537 20.9538L35.4223 20.7592L35.4927 20.5649L35.565 20.3709L35.639 20.1773L35.715 19.9841L35.7927 19.7913L35.8722 19.599L35.9536 19.4071L36.0368 19.2157L36.1219 19.0248L36.2087 18.8344L36.2974 18.6445L36.3879 18.4552L36.4802 18.2665L36.5743 18.0784L36.6702 17.891L36.7679 17.7041L36.8674 17.518L36.9687 17.3325L37.0718 17.1478L37.1766 16.9638L37.2832 16.7805L37.3917 16.598L37.5018 16.4164L37.6138 16.2355L37.7274 16.0555L37.8429 15.8763L37.96 15.698L38.079 15.5207L38.1996 15.3442L38.3219 15.1687L38.446 14.9942L38.5718 14.8206L38.6992 14.6481L38.8284 14.4765L38.9592 14.306L39.0917 14.1366L39.2259 13.9683L39.3617 13.8011L39.4991 13.635L39.6382 13.47L39.7789 13.3062L39.9212 13.1436L40.0651 12.9823L40.2106 12.8221L40.3577 12.6632L40.5064 12.5055L40.6566 12.3491L40.8083 12.194L40.9616 12.0403L41.1164 11.8878L41.2727 11.7368L41.4305 11.5871L41.5898 11.4388L41.7506 11.2919L41.9128 11.1464L42.0765 11.0024L42.2416 10.8598L42.4081 10.7188L42.576 10.5792L42.7453 10.4411L42.916 10.3046L43.088 10.1696L43.2614 10.0362L43.4361 9.90441L43.6122 9.77419L43.7895 9.64559L43.9681 9.51862L44.148 9.3933L44.3291 9.26964L44.5115 9.14767L44.6951 9.02738L44.8798 8.90881L45.0658 8.79197L45.253 8.67686L45.4412 8.56351L45.6307 8.45193L45.8212 8.34214L46.0129 8.23414L46.2056 8.12795L46.3994 8.02359L46.5942 7.92107L46.7901 7.8204L46.9869 7.7216L47.1848 7.62467L47.3836 7.52964L47.5834 7.4365L47.7841 7.34529L47.9858 7.256L48.1883 7.16865L48.3917 7.08326L48.596 6.99982L48.801 6.91836L49.007 6.83889L49.2137 6.76141L49.4211 6.68593L49.6294 6.61247L49.8384 6.54104L50.0481 6.47165L50.2584 6.4043L50.4695 6.339L50.6812 6.27578L50.8936 6.21462L51.1065 6.15554L51.32 6.09856L51.5342 6.04367L51.7488 5.99089L51.964 5.94023L52.1797 5.89169L52.3959 5.84527L52.6125 5.80099L52.8296 5.75886L53.047 5.71887L53.2649 5.68104L53.4832 5.64537L53.7018 5.61186L53.9207 5.58053L54.1399 5.55138L54.3595 5.52441L54.5792 5.49963L54.7993 5.47703L55.0195 5.45664L55.2399 5.43845L55.4605 5.42245L55.6813 5.40867L55.9021 5.3971L56.1231 5.38774L56.3442 5.3806L56.5653 5.37567L56.7864 5.37297L57.0076 5.37249L57.2287 5.37423L57.4498 5.3782L57.6709 5.3844L57.8918 5.39282L58.1127 5.40348L58.3335 5.41636L58.554 5.43147L58.7744 5.44881L58.9947 5.46838L59.2147 5.49017L59.4344 5.5142L59.6539 5.54045L59.8731 5.56892L60.092 5.59961L60.3106 5.63253L60.5288 5.66766L60.7466 5.70501L60.964 5.74457L61.181 5.78634L61.3975 5.83032L61.6136 5.8765L61.8292 5.92488L62.0443 5.97545L62.2588 6.02822L62.4727 6.08317L62.6861 6.1403L62.8989 6.19961L63.111 6.26109L63.3225 6.32474L63.5333 6.39054L63.7434 6.4585L63.9528 6.52861L64.1614 6.60086L64.3693 6.67523L64.5764 6.75174L64.7827 6.83037L64.9881 6.9111L65.1927 6.99394L65.3965 7.07888L65.5993 7.1659L65.8012 7.255L66.0022 7.34617L66.2022 7.4394L66.4013 7.53468L66.5993 7.63201L66.7963 7.73136L66.9923 7.83274L67.1872 7.93613L67.381 8.04152L67.5737 8.1489L67.7653 8.25826L67.9558 8.36959L68.1451 8.48288L68.3332 8.59811L68.5201 8.71527L68.7057 8.83436L68.8901 8.95535L69.0733 9.07824L69.2551 9.20301L69.4357 9.32965L69.6149 9.45815L69.7928 9.5885L69.9694 9.72067L70.1445 9.85466L70.3183 9.99046L70.4906 10.128L70.6615 10.2674L70.831 10.4085L70.999 10.5514L71.1655 10.6959L71.3305 10.8422L71.4939 10.9902L71.6559 11.1399L71.8162 11.2913L71.975 11.4443L72.1323 11.5989L72.2879 11.7551L72.4419 11.913L72.5942 12.0724L72.7449 12.2334L72.8939 12.396L73.0413 12.5601L73.1869 12.7257L73.3308 12.8928L73.473 13.0613L73.6135 13.2314L73.7521 13.4029L73.8891 13.5758L74.0242 13.7501L74.1575 13.9258L74.289 14.1029L74.4187 14.2813L74.5466 14.4611L74.6726 14.6421L74.7967 14.8245L74.9189 15.0081L75.0393 15.193L75.1577 15.3792L75.2743 15.5665L75.3889 15.755L75.5015 15.9448L75.6123 16.1356L75.721 16.3276L75.8278 16.5207L75.9326 16.7149L76.0354 16.9102L76.1363 17.1065L76.2351 17.3039L76.3319 17.5023L76.4266 17.7016L76.5193 17.9019L76.61 18.1032L76.6986 18.3054L76.7852 18.5085L76.8696 18.7124L76.952 18.9173L77.0323 19.1229L77.1106 19.3294L77.1867 19.5367L77.2607 19.7447L77.3326 19.9535L77.4024 20.163L77.47 20.3733L77.5355 20.5842L77.5989 20.7957L77.6601 21.0079L77.7192 21.2207L77.7761 21.4341L77.8309 21.6481L77.8835 21.8626L77.9339 22.0777L77.9822 22.2932L78.0283 22.5093L78.0722 22.7258L78.114 22.9427L78.1535 23.16L78.1909 23.3777L78.2261 23.5958L78.2591 23.8142L78.2899 24.033L78.3185 24.252L78.345 24.4713L78.3692 24.6909L78.3913 24.9107L78.4111 25.1307L78.4288 25.3509L78.4442 25.5712L78.4575 25.7917L78.4686 26.0123L78.4775 26.233L78.4842 26.4537L78.4887 26.6745L78.491 26.8953L78.4911 27.1161L78.4891 27.3369L78.4848 27.5577L78.4784 27.7783L78.4699 27.9989L78.4591 28.2194L78.4462 28.4397L78.4311 28.6599L78.4139 28.8799L78.3945 29.0997L78.3729 29.3193L78.3492 29.5386L78.3234 29.7576L78.2954 29.9764L78.2653 30.1948L78.2331 30.4129L78.1988 30.6307L78.1623 30.848L78.1238 31.065L78.0831 31.2816L78.0404 31.4977L77.9955 31.7133L77.9486 31.9284L77.8997 32.1431L77.8486 32.3572L77.7955 32.5707L77.7404 32.7837L77.6833 32.9961L77.6241 33.2079L77.5629 33.419L77.4996 33.6295L77.4344 33.8393L77.3672 34.0485L77.2981 34.2569L77.2269 34.4645L77.1538 34.6714L77.0788 34.8776L77.0018 35.0829L76.9229 35.2875L76.8421 35.4912L76.7593 35.694L76.6747 35.896L76.5882 36.0971L76.4999 36.2972L76.4097 36.4965L76.3177 36.6948L76.2238 36.8921L76.1281 37.0885L76.0306 37.2838L75.9314 37.4782L75.8303 37.6715L75.7275 37.8637L75.623 38.0549L75.5167 38.245L75.4087 38.434L75.299 38.6218L75.1877 38.8085L75.0746 38.9941L74.9599 39.1785L74.8436 39.3617L74.7256 39.5437L74.606 39.7245L74.4848 39.9041L74.3621 40.0824L74.2378 40.2594L74.1119 40.4352L73.9845 40.6097L73.8556 40.7828L73.7252 40.9547L73.5934 41.1252L73.46 41.2943L73.3253 41.4621L73.1891 41.6285L73.0515 41.7935L72.9125 41.9571L72.7721 42.1193L72.6304 42.2801L72.4873 42.4394L72.3429 42.5973L72.1972 42.7537L72.0503 42.9086L71.902 43.0621L71.7526 43.214L71.6019 43.3644L71.45 43.5133L71.2969 43.6607L71.1426 43.8065L70.9872 43.9508L70.8307 44.0935L70.673 44.2346L70.5143 44.3742L70.3545 44.5121L70.1937 44.6485L70.0318 44.7832L69.8689 44.9164L69.705 45.0479L69.5402 45.1777L69.3743 45.306L69.2076 45.4326L69.04 45.5575L68.8715 45.6807L68.702 45.8023L68.5318 45.9222L68.3607 46.0404L68.1889 46.157L68.0162 46.2718L67.8428 46.3849L67.6686 46.4964L67.4937 46.6061L67.3181 46.7141L67.1418 46.8203L66.9649 46.9249L66.7873 47.0277L66.6092 47.1288L66.4304 47.2281L66.251 47.3258L66.0711 47.4216L65.8906 47.5157L65.7097 47.6081L65.5282 47.6987L65.3463 47.7876L65.164 47.8747L64.9812 47.96L64.798 48.0436L64.6144 48.1254L64.4304 48.2055L64.2462 48.2838L64.0616 48.3604L63.8766 48.4351L63.6915 48.5082L63.506 48.5794L63.3203 48.6489L63.1344 48.7167L62.9484 48.7827L62.7621 48.8469L62.5757 48.9093L62.3892 48.9701L62.2025 49.029L62.0158 49.0862L61.829 49.1417L61.6421 49.1954L61.4552 49.2474L61.2683 49.2977L61.0815 49.3462L60.8946 49.393L60.7079 49.438L60.5212 49.4814L60.3346 49.523L60.1481 49.5629L59.9617 49.6011L59.7755 49.6376L59.5895 49.6724L59.4037 49.7055L59.2181 49.7369L59.0327 49.7667L58.8476 49.7948L58.6628 49.8212L58.4783 49.8459L58.294 49.869L58.1102 49.8905L57.9266 49.9103L57.7435 49.9285L57.5607 49.9451L57.3784 49.9601L57.1964 49.9734L57.015 49.9852L56.834 49.9954L56.6534 50.004L56.4734 50.011L56.2939 50.0165L56.115 50.0204L55.9366 50.0228L55.7587 50.0236L55.5815 50.023L55.4049 50.0208L55.2289 50.0171L55.0536 50.012L54.8789 50.0053L54.7049 49.9972L54.5316 49.9877L54.3589 49.9767L54.1871 49.9643L54.016 49.9505L53.8456 49.9352L53.676 49.9186L53.5072 49.9006L53.3392 49.8812L53.172 49.8605L53.0057 49.8384L52.8402 49.815L52.6756 49.7903L52.5119 49.7643L52.3491 49.737L52.1872 49.7085L52.0262 49.6786L51.8662 49.6476L51.7071 49.6153L51.5489 49.5818L51.3918 49.5471L51.2357 49.5112L51.0805 49.4741L50.9264 49.4359L50.7733 49.3965L50.6213 49.356L50.4703 49.3144L50.3204 49.2718L50.1715 49.228L50.0238 49.1832L49.8772 49.1373L49.7316 49.0904L49.5872 49.0425L49.444 48.9936L49.3019 48.9438L49.1609 48.8929L49.0211 48.8411L48.8825 48.7884L48.7451 48.7348L48.6089 48.6803L48.4739 48.6249L48.3401 48.5687L48.2075 48.5116L48.0762 48.4537L47.9461 48.3949L47.8172 48.3354L47.6896 48.2751L47.5633 48.2141L47.4382 48.1523L47.3144 48.0899L47.192 48.0267L47.0708 47.9628L46.9509 47.8983L46.8323 47.8331L46.715 47.7673L46.599 47.7009L46.4844 47.634L46.3711 47.5664L46.2591 47.4983L46.1485 47.4297L46.0392 47.3605L45.9312 47.2909L45.8246 47.2207L45.7194 47.1502L45.6155 47.0791L45.513 47.0077L45.4118 46.9358L45.3121 46.8636L45.2136 46.791L45.1166 46.7181L45.021 46.6449L44.9267 46.5713L44.8338 46.4975L44.7423 46.4233L44.6521 46.349L44.5634 46.2744L44.476 46.1996L44.39 46.1246L44.3054 46.0494L44.2222 45.9741L44.1404 45.8986L44.0599 45.8231L43.9809 45.7474L43.9032 45.6716L43.8269 45.5958L43.752 45.52L43.6785 45.4441L43.6063 45.3682L43.5356 45.2924L43.4662 45.2166L43.3981 45.1408L43.3315 45.0651L43.2662 44.9895L43.2022 44.914L43.1396 44.8386L43.0784 44.7634L43.0185 44.6883L42.96 44.6135L42.9028 44.5388L42.847 44.4643L42.7924 44.3901L42.7392 44.3161L42.6874 44.2425L42.6368 44.169L42.5876 44.096L42.5396 44.0232L42.493 43.9508L42.4476 43.8787L42.4036 43.807L42.3608 43.7357L42.3193 43.6648L42.279 43.5944L42.24 43.5244L42.2023 43.4549L42.1658 43.3858L42.1305 43.3172L42.0965 43.2492L42.0636 43.1817L42.032 43.1147L42.0016 43.0483L41.9723 42.9825L41.9443 42.9172L41.9174 42.8526L41.8916 42.7886L41.8671 42.7253L41.8436 42.6626L41.8213 42.6005L41.8001 42.5392L41.78 42.4786L41.761 42.4186L41.7431 42.3595L41.7263 42.301L41.7105 42.2433L41.6958 42.1864L41.6821 42.1303L41.6695 42.075L41.6579 42.0205L41.6472 41.9668L41.6376 41.914L41.6289 41.862L41.6212 41.8109L41.6145 41.7607L41.6087 41.7114L41.6038 41.663L41.5998 41.6155L41.5968 41.5689L41.5946 41.5233L41.5933 41.4786L41.5928 41.4349L41.5932 41.3922L41.5944 41.3505L41.5964 41.3098L41.5992 41.27L41.6028 41.2313L41.6072 41.1937L41.6123 41.1571L41.6182 41.1215L41.6248 41.087L41.6321 41.0536L41.6401 41.0213L41.6487 40.99L41.658 40.9599L41.668 40.9308L41.6786 40.9029L41.6898 40.8761L41.7016 40.8505L41.714 40.8259L41.7269 40.8026L41.7404 40.7804L41.7544 40.7593L41.769 40.7395L41.784 40.7208L41.7995 40.7033L41.8155 40.687L41.8319 40.6719L41.8487 40.658L41.866 40.6453L41.8836 40.6338L41.9017 40.6236L41.92 40.6145L41.9388 40.6067L41.9578 40.6002L41.9772 40.5949L41.9968 40.5908L42.0167 40.588L42.0369 40.5864L42.0573 40.5861L42.0779 40.587L42.0987 40.5892L42.1197 40.5927L42.1409 40.5975L42.1622 40.6035L42.1836 40.6108L42.2051 40.6193L42.2268 40.6291L42.2485 40.6403L42.2702 40.6527L42.292 40.6663L42.3138 40.6813L42.3356 40.6975L42.3574 40.715L42.3792 40.7338L42.4009 40.7539L42.4225 40.7753L42.444 40.7979L42.4655 40.8218L42.4868 40.847L42.5079 40.8735L42.5289 40.9012L42.5497 40.9302L42.5703 40.9605L42.5907 40.992L42.6109 41.0249L42.6307 41.0589L42.6504 41.0943L42.6697 41.1309L42.6887 41.1687L42.7074 41.2078L42.7258 41.2481L42.7438 41.2897L42.7614 41.3325L42.7786 41.3766L42.7954 41.4218L42.8117 41.4683L42.8277 41.516L42.8431 41.565L42.8581 41.6151L42.8725 41.6664L42.8865 41.7189L42.8999 41.7726L42.9127 41.8275L42.925 41.8835L42.9367 41.9407L42.9478 41.9991L42.9583 42.0586L42.9681 42.1193L42.9773 42.181L42.9858 42.2439L42.9936 42.308L43.0007 42.3731L43.0071 42.4393L43.0128 42.5067L43.0177 42.5751L43.0218 42.6445L43.0252 42.7151L43.0277 42.7867L43.0295 42.8593L43.0304 42.9329L43.0305 43.0076L43.0297 43.0833L43.028 43.16L43.0255 43.2376L43.022 43.3163L43.0177 43.3959L43.0124 43.4764L43.0061 43.5579L42.9989 43.6403L42.9907 43.7237L42.9816 43.8079L42.9714 43.893L42.9602 43.979L42.948 44.0659L42.9347 44.1536L42.9204 44.2422L42.905 44.3316L42.8886 44.4218L42.871 44.5127L42.8524 44.6045L42.8326 44.6971L42.8117 44.7903L42.7896 44.8844L42.7664 44.9791L42.7421 45.0746L42.7165 45.1707L42.6898 45.2676L42.6619 45.3651L42.6328 45.4632L42.6024 45.562L42.5708 45.6614L42.538 45.7614L42.504 45.862L42.4686 45.9631L42.432 46.0648L42.3942 46.167L42.355 46.2698L42.3146 46.3731L42.2728 46.4768L42.2298 46.581L42.1854 46.6857L42.1397 46.7908L42.0926 46.8963L42.0443 47.0022L41.9945 47.1085L41.9434 47.2151L41.8909 47.3221L41.8371 47.4295L41.7819 47.5371L41.7253 47.645L41.6673 47.7533L41.6079 47.8617L41.5471 47.9704L41.4849 48.0793L41.4213 48.1885L41.3563 48.2978L41.2898 48.4072L41.2219 48.5169L41.1526 48.6266L41.0819 48.7364L41.0097 48.8464L40.936 48.9564L40.861 49.0665L40.7844 49.1765L40.7065 49.2866L40.627 49.3967L40.5461 49.5068L40.4638 49.6168L40.3799 49.7268L40.2947 49.8367L40.2079 49.9465L40.1197 50.0561L40.03 50.1656L39.9389 50.275L39.8463 50.3841L39.7522 50.4931L39.6566 50.6018L39.5596 50.7104L39.4611 50.8186L39.3612 50.9266L39.2597 51.0342L39.1568 51.1416L39.0525 51.2486L38.9467 51.3553L38.8394 51.4616L38.7307 51.5674L38.6205 51.6729L38.5089 51.7779L38.3958 51.8825L38.2812 51.9866L38.1653 52.0902L38.0478 52.1933L37.929 52.2959L37.8087 52.3979L37.687 52.4994L37.5639 52.6002L37.4393 52.7005L37.3133 52.8001L37.186 52.899L37.0572 52.9973L36.927 53.0949L36.7955 53.1918L36.6625 53.288L36.5282 53.3835L36.3925 53.4781L36.2555 53.572L36.1171 53.6651L35.9773 53.7574L35.8362 53.8488L35.6938 53.9394L35.55 54.0291L35.405 54.1179L35.2586 54.2058L35.1109 54.2928L34.9619 54.3788L34.8117 54.4639L34.6602 54.548L34.5074 54.6311L34.3533 54.7131L34.1981 54.7942L34.0416 54.8741L33.8838 54.953L33.7249 55.0309L33.5648 55.1076L33.4035 55.1832L33.241 55.2576L33.0773 55.3309L32.9125 55.403L32.7466 55.474L32.5795 55.5437L32.4113 55.6122L32.242 55.6795L32.0716 55.7455L31.9001 55.8102L31.7276 55.8737L31.5541 55.9359L31.3795 55.9967L31.2038 56.0563L31.0272 56.1144L30.8496 56.1713L30.671 56.2267L30.4914 56.2808L30.3109 56.3334L30.1294 56.3846L29.9471 56.4344L29.7638 56.4828L29.5796 56.5297L29.3946 56.5751L29.2087 56.619L29.022 56.6615L28.8345 56.7024L28.6461 56.7418L28.457 56.7796L28.267 56.8159L28.0764 56.8507L27.885 56.8839L27.6928 56.9154L27.5 56.9454L27.3065 56.9738L27.1123 57.0005L26.9174 57.0257L26.7219 57.0491L26.5259 57.071L26.3292 57.0911L26.1319 57.1096L25.9341 57.1264L25.7357 57.1415L25.5368 57.1549L25.3374 57.1666L25.1375 57.1766L24.9372 57.1848L24.7364 57.1913L24.5352 57.196L24.3336 57.199L24.1316 57.2002L23.9292 57.1997L23.7265 57.1974L23.5234 57.1932L23.3201 57.1873L23.1165 57.1796L22.9126 57.1701L22.7084 57.1587L22.504 57.1456L22.2994 57.1306L22.0947 57.1138L21.8897 57.0951L21.6847 57.0746L21.4795 57.0522L21.2742 57.028L21.0688 57.002L20.8634 56.974L20.6579 56.9442L20.4524 56.9126L20.2469 56.879L20.0415 56.8436L19.8361 56.8063L19.6307 56.7671L19.4255 56.726L19.2203 56.6831L19.0153 56.6382L18.8105 56.5915L18.6058 56.5428L18.4014 56.4923L18.1971 56.4399L17.9931 56.3856L17.7894 56.3293L17.5859 56.2712L17.3827 56.2112L17.1799 56.1493L16.9775 56.0855L16.7754 56.0197L16.5737 55.9521L16.3724 55.8826L16.1715 55.8112L15.9711 55.7379L15.7712 55.6628L15.5718 55.5857L15.373 55.5067L15.1746 55.4259L14.9769 55.3432L14.7797 55.2586L14.5831 55.1721L14.3872 55.0838L14.192 54.9936L13.9974 54.9016L13.8035 54.8076L13.6103 54.7119L13.4179 54.6142L13.2263 54.5148L13.0354 54.4135L12.8453 54.3104L12.6561 54.2054L12.4677 54.0987L12.2802 53.9901L12.0936 53.8797L11.9078 53.7675L11.7231 53.6536L11.5392 53.5378L11.3564 53.4203L11.1745 53.301L10.9937 53.1799L10.8139 53.0571L10.6352 52.9326L10.4575 52.8063L10.281 52.6783L10.1055 52.5485L9.93122 52.4171L9.75808 52.284L9.58612 52.1492L9.41535 52.0127L9.24581 51.8746L9.07751 51.7348L8.91046 51.5933L8.74469 51.4502L8.58022 51.3055L8.41706 51.1592L8.25524 51.0113L8.09477 50.8619L7.93568 50.7108L7.77797 50.5582L7.62168 50.404L7.46681 50.2483L7.31339 50.0911L7.16144 49.9324L7.01096 49.7722L6.86199 49.6105L6.71453 49.4473L6.56861 49.2827L6.42425 49.1167L6.28145 48.9492L6.14023 48.7803L6.00062 48.6101L5.86263 48.4384L5.72628 48.2654L5.59158 48.0911L5.45855 47.9154L5.3272 47.7384L5.19755 47.5602L5.06962 47.3806L4.94342 47.1998L4.81897 47.0177L4.69628 46.8344L4.57537 46.6499L4.45624 46.4642L4.33893 46.2773L4.22343 46.0892L4.10977 45.9L3.99796 45.7097L3.888 45.5183L3.77993 45.3258L3.67374 45.1322L3.56945 44.9376L3.46708 44.7419L3.36663 44.5453L3.26813 44.3476L3.17157 44.149L3.07698 43.9494L2.98437 43.7489L2.89374 43.5474L2.80511 43.3451L2.71849 43.1418L2.63389 42.9378L2.55133 42.7329L2.4708 42.5271L2.39232 42.3206L2.31591 42.1133L2.24157 41.9053L2.16931 41.6965L2.09914 41.487L2.03107 41.2769L1.96511 41.066L1.90126 40.8545L1.83955 40.6424L1.77996 40.4297L1.72251 40.2164L1.66722 40.0025L1.61408 39.7881L1.5631 39.5731L1.51429 39.3577L1.46766 39.1418L1.42321 38.9255L1.38096 38.7087L1.34089 38.4915L1.30303 38.2739L1.26737 38.056L1.23393 37.8377L1.2027 37.6191L1.17369 37.4002L1.14691 37.181L1.12236 36.9616L1.10003 36.7419L1.07995 36.5221L1.06211 36.3021L1.0465 36.0819L1.03315 35.8615L1.02204 35.6411L1.01319 35.4205L1.00658 35.1999L1.00223 34.9793L1.00014 34.7586L1.0003 34.538L1.00273 34.3173L1.00741 34.0967L1.01435 33.8762L1.02355 33.6558L1.03501 33.4355L1.04873 33.2153L1.06471 32.9953L1.08294 32.7754L1.10344 32.5558L1.12618 32.3365L1.15119 32.1173L1.17844 31.8985L1.20794 31.6799L1.23969 31.4617L1.27369 31.2438L1.30993 31.0263L1.3484 30.8092L1.38911 30.5925L1.43206 30.3763L1.47723 30.1605L1.52462 29.9452L1.57423 29.7304L1.62606 29.5161L1.68009 29.3024L1.73633 29.0892L1.79477 28.8767L1.8554 28.6648L1.91821 28.4535L1.98321 28.2429L2.05038 28.0329L2.11972 27.8237L2.19121 27.6152L2.26486 27.4075L2.34065 27.2005L2.41859 26.9944L2.49865 26.789L2.58083 26.5845L2.66512 26.3809L2.75152 26.1781L2.84001 25.9762L2.93059 25.7753L3.02324 25.5753L3.11797 25.3763L3.21474 25.1783L3.31357 24.9813L3.41442 24.7853L3.51731 24.5904L3.62221 24.3965L3.72911 24.2038L3.838 24.0121L3.94887 23.8216L4.06172 23.6322L4.17651 23.444L4.29325 23.257L4.41193 23.0712L4.53252 22.8867L4.65502 22.7033L4.77941 22.5213L4.90568 22.3405L5.03382 22.1611L5.16381 21.983L5.29563 21.8062L5.42929 21.6308L5.56475 21.4567L5.702 21.2841L5.84104 21.1129L5.98184 20.9431L6.12439 20.7748L6.26868 20.6079L6.41468 20.4425L6.56239 20.2787L6.71179 20.1163L6.86286 19.9555L7.01558 19.7962L7.16994 19.6385L7.32592 19.4824L7.48351 19.3279L7.64269 19.175L7.80343 19.0237L7.96573 18.8741L8.12957 18.7262L8.29492 18.5799L8.46177 18.4353L8.63011 18.2924L8.79991 18.1513L8.97115 18.0118L9.14382 17.8742L9.3179 17.7383L9.49337 17.6041L9.67021 17.4718L9.8484 17.3412L10.0279 17.2125L10.2088 17.0856L10.3909 16.9605L10.5743 16.8373L10.7589 16.7159L10.9448 16.5965L11.1319 16.4789L11.3202 16.3632L11.5097 16.2494L11.7003 16.1375L11.8921 16.0276L12.0849 15.9196L12.2789 15.8135L12.4739 15.7094L12.67 15.6073L12.8671 15.5071L13.0652 15.409L13.2643 15.3128L13.4643 15.2187L13.6653 15.1265L13.8672 15.0364L14.0701 14.9483L14.2738 14.8622L14.4783 14.7782L14.6837 14.6962L14.8899 14.6163L15.0969 14.5385L15.3047 14.4627L15.5132 14.389L15.7224 14.3174L15.9323 14.2478L16.1429 14.1804L16.3542 14.1151L16.5661 14.0518L16.7786 13.9907L16.9917 13.9317L17.2054 13.8748L17.4196 13.82L17.6343 13.7673L17.8495 13.7168L18.0652 13.6684L18.2814 13.6221L18.498 13.5779L18.715 13.5359L18.9324 13.496L19.1501 13.4583L19.3682 13.4227L19.5866 13.3893L19.8053 13.358L20.0243 13.3288L20.2435 13.3018L20.463 13.2769L20.6826 13.2542L20.9025 13.2336L21.1225 13.2152L21.3426 13.1989L21.5628 13.1847L21.7832 13.1727L22.0036 13.1628L22.224 13.1551L22.4445 13.1495L22.6649 13.146L22.8854 13.1446L23.1058 13.1454L23.3261 13.1483L23.5463 13.1533L23.7665 13.1605L23.9865 13.1697L24.2063 13.1811L24.4259 13.1945L24.6454 13.2101L24.8646 13.2277L25.0836 13.2475L25.3023 13.2693L25.5208 13.2932L25.7389 13.3192L25.9567 13.3472L26.1741 13.3773L26.3912 13.4094L26.6078 13.4436L26.8241 13.4798L27.0399 13.5181L27.2552 13.5584L27.4701 13.6007L27.6845 13.645L27.8983 13.6912L28.1116 13.7395L28.3244 13.7898L28.5365 13.842L28.7481 13.8962L28.959 13.9524L29.1693 14.0105L29.3789 14.0705L29.5878 14.1325L29.796 14.1963L30.0035 14.2621L30.2103 14.3297L30.4163 14.3993L30.6215 14.4707L30.8259 14.5439L31.0295 14.619L31.2322 14.696L31.4341 14.7747L31.6351 14.8553L31.8352 14.9377L32.0345 15.0218L32.2327 15.1078L32.4301 15.1954L32.6264 15.2849L32.8218 15.376L33.0162 15.4689L33.2096 15.5635L33.4019 15.6597L33.5932 15.7577L33.7834 15.8573L33.9725 15.9585L34.1606 16.0614L34.3475 16.1659L34.5332 16.272L34.7179 16.3797L34.9013 16.4889L35.0836 16.5998L35.2647 16.7121L35.4446 16.826L35.6233 16.9413L35.8007 17.0582L35.9769 17.1765L36.1518 17.2963L36.3254 17.4176L36.4977 17.5402L36.6687 17.6643L36.8384 17.7898L37.0068 17.9166L37.1738 18.0448L37.3394 18.1743L37.5037 18.3051L37.6666 18.4373L37.8281 18.5707L37.9882 18.7054L38.1469 18.8413L38.3041 18.9785L38.4599 19.1168L38.6143 19.2564L38.7672 19.3971L38.9186 19.539L39.0685 19.682L39.2169 19.8262L39.3638 19.9714L39.5092 20.1177L39.6531 20.2651L39.7955 20.4135L39.9363 20.5629L40.0755 20.7133L40.2132 20.8647L40.3493 21.0171L40.4839 21.1704L40.6169 21.3246L40.7483 21.4797L40.8781 21.6357L41.0062 21.7926L41.1328 21.9503L41.2578 22.1088L41.3811 22.2681L41.5028 22.4282L41.6229 22.589L41.7413 22.7506L41.8581 22.9129L41.9732 23.0759L42.0867 23.2396L42.1985 23.4039L42.3087 23.5688L42.4172 23.7344L42.524 23.9006L42.6292 24.0673L42.7326 24.2346L42.8344 24.4024L42.9345 24.5707L43.0329 24.7396L43.1296 24.9088L43.2247 25.0786L43.318 25.2487L43.4097 25.4193L43.4996 25.5902L43.5879 25.7615L43.6744 25.9332L43.7593 26.1051L43.8425 26.2774L43.9239 26.4499L44.0037 26.6227L44.0818 26.7958L44.1582 26.969L44.2329 27.1425L44.3058 27.3161L44.3771 27.4899L44.4468 27.6638L44.5147 27.8378L44.5809 28.012L44.6455 28.1862L44.7083 28.3604L44.7695 28.5347L44.829 28.709L44.8869 28.8833L44.9431 29.0575L44.9976 29.2317L45.0504 29.4059L45.1016 29.5799L45.1512 29.7538L45.1991 29.9276L45.2453 30.1013L45.29 30.2748L45.333 30.4481L45.3743 30.6212L45.4141 30.794L45.4522 30.9667L45.4888 31.139L45.5237 31.3111L45.5571 31.4828L45.5888 31.6543L45.619 31.8253L45.6476 31.9961L45.6747 32.1664L45.7002 32.3364L45.7241 32.5059L45.7466 32.675L45.7675 32.8436L45.7868 33.0118L45.8047 33.1795L45.8211 33.3467L45.8359 33.5133L45.8493 33.6794L45.8612 33.845L45.8717 34.0099L45.8807 34.1743L45.8883 34.3381L45.8944 34.5012L45.8991 34.6637L45.9024 34.8255L45.9044 34.9867L45.9049 35.1471L45.904 35.3069L45.9018 35.4659L45.8983 35.6241L45.8934 35.7816L45.8872 35.9384L45.8796 36.0943L45.8708 36.2495L45.8607 36.4038L45.8493 36.5573L45.8367 36.7099L45.8228 36.8617L45.8077 37.0126L45.7913 37.1626L45.7738 37.3117L45.755 37.4599L45.7351 37.6072L45.714 37.7535L45.6918 37.8988L45.6685 38.0432L45.644 38.1866L45.6184 38.329L45.5917 38.4704L45.564 38.6107L45.5352 38.7501L45.5054 38.8883L45.4745 39.0256L45.4427 39.1617L45.4098 39.2968L45.3759 39.4308L45.3411 39.5637L45.3054 39.6954L45.2687 39.8261L45.2311 39.9556L45.1927 40.084L45.1533 40.2112L45.1131 40.3373L45.072 40.4621L45.0301 40.5859L44.9874 40.7084L44.9439 40.8297L44.8996 40.9498L44.8546 41.0687L44.8088 41.1864L44.7623 41.3029L44.7151 41.4181L44.6672 41.5321L44.6186 41.6448L44.5694 41.7563L44.5196 41.8665L44.4691 41.9754L44.418 42.083L44.3664 42.1894L44.3142 42.2945L44.2614 42.3983L44.2082 42.5008L44.1544 42.602L44.1001 42.7019L44.0454 42.8004L43.9902 42.8977L43.9346 42.9936L43.8785 43.0882L43.8221 43.1815L43.7653 43.2734L43.7081 43.3641L43.6506 43.4533L43.5928 43.5413L43.5347 43.6279L43.4762 43.7131L43.4176 43.797L43.3587 43.8796L43.2995 43.9608L43.2402 44.0407L43.1806 44.1192L43.1209 44.1964L43.061 44.2722L43.001 44.3466L42.9409 44.4197L42.8807 44.4915L42.8204 44.5619L42.7601 44.631L42.6997 44.6987L42.6393 44.765L42.5789 44.8301L42.5185 44.8937L42.4582 44.9561L42.3979 45.0171L42.3376 45.0767L42.2775 45.135L42.2175 45.192L42.1576 45.2477L42.0978 45.302L42.0383 45.355L41.9788 45.4067L41.9196 45.4571L41.8607 45.5062L41.8019 45.554L41.7434 45.6004L41.6852 45.6456L41.6273 45.6895L41.5696 45.7321L41.5123 45.7734L41.4554 45.8135L41.3988 45.8523L41.3425 45.8898L41.2867 45.9261L41.2313 45.9611L41.1763 45.9949L41.1218 46.0274L41.0677 46.0588L41.0141 46.0889L40.961 46.1178L40.9084 46.1455L40.8563 46.172L40.8048 46.1973L40.7539 46.2215L40.7035 46.2445L40.6537 46.2663L40.6045 46.287L40.556 46.3065L40.5081 46.3249L40.4608 46.3422L40.4142 46.3584L40.3683 46.3735L40.3231 46.3875L40.2787 46.4004L40.2349 46.4123L40.1919 46.4231L40.1497 46.4328L40.1082 46.4416L40.0675 46.4493L40.0276 46.4559L39.9886 46.4616L39.9503 46.4663L39.9129 46.4701L39.8764 46.4728L39.8407 46.4747L39.806 46.4756L39.7721 46.4755L39.7391 46.4746L39.707 46.4727L39.6759 46.47L39.6457 46.4664L39.6165 46.462L39.5882 46.4567L39.561 46.4506L39.5347 46.4437L39.5094 46.4359L39.4851 46.4274L39.4619 46.4182L39.4397 46.4081L39.4185 46.3974L39.3984 46.3859L39.3794 46.3737L39.3614 46.3608L39.3445 46.3472L39.3287 46.3329L39.314 46.318L39.3005 46.3025L39.288 46.2864L39.2767 46.2697L39.2665 46.2523L39.2575 46.2344L39.2496 46.216L39.2429 46.197L39.2373 46.1775L39.233 46.1576L39.2298 46.1371L39.2278 46.1161L39.227 46.0947L39.2274 46.0729L39.229 46.0507L39.2318 46.028L39.2359 46.005L39.2412 45.9816L39.2477 45.9579L39.2555 45.9338L39.2645 45.9094L39.2747 45.8847L39.2862 45.8598L39.299 45.8345L39.313 45.8091L39.3282 45.7834L39.3448 45.7575L39.3626 45.7314L39.3817 45.7052L39.4021 45.6788L39.4237 45.6522L39.4466 45.6256L39.4708 45.5988L39.4963 45.572L39.5231 45.5451L39.5512 45.5182L39.5805 45.4912L39.6112 45.4642L39.6431 45.4373L39.6763 45.4104L39.7109 45.3835L39.7467 45.3567L39.7838 45.3299L39.8222 45.3033L39.8619 45.2768L39.9028 45.2504L39.9451 45.2242L39.9886 45.1982L40.0335 45.1723L40.0796 45.1467L40.127 45.1213L40.1756 45.0961L40.2256 45.0712L40.2768 45.0466L40.3293 45.0223L40.383 44.9983L40.438 44.9747L40.4943 44.9514L40.5518 44.9285L40.6106 44.9059L40.6706 44.8838L40.7319 44.8622L40.7944 44.8409L40.8581 44.8201L40.923 44.7998L40.9892 44.78L41.0566 44.7608L41.1252 44.742L41.195 44.7238L41.2659 44.7062L41.3381 44.6891L41.4115 44.6727L41.486 44.6569L41.5617 44.6417L41.6385 44.6271L41.7165 44.6133L41.7957 44.6001L41.8759 44.5876L41.9573 44.5758L42.0398 44.5648L42.1234 44.5545L42.2081 44.545L42.2939 44.5363L42.3808 44.5284L42.4688 44.5213L42.5578 44.515L42.6478 44.5096L42.7389 44.505L42.831 44.5013L42.9242 44.4986L43.0183 44.4967L43.1134 44.4957L43.2095 44.4957L43.3066 44.4966L43.4047 44.4985L43.5036 44.5014L43.6036 44.5052L43.7044 44.5101L43.8062 44.516L43.9088 44.523L44.0123 44.531L44.1167 44.54L44.222 44.5502L44.3281 44.5614L44.435 44.5737L44.5427 44.5872L44.6513 44.6017L44.7606 44.6174L44.8707 44.6343L44.9816 44.6524L45.0932 44.6716L45.2055 44.692L45.3186 44.7136L45.4323 44.7364L45.5467 44.7604L45.6618 44.7857L45.7776 44.8122L45.894 44.84L46.011 44.8691L46.1286 44.8994L46.2467 44.931L46.3655 44.9639L46.4848 44.9981L46.6047 45.0337L46.7251 45.0705L46.8459 45.1087L46.9673 45.1483L47.0891 45.1892L47.2114 45.2314L47.3341 45.275L47.4573 45.32L47.5808 45.3664L47.7047 45.4142L47.829 45.4634L47.9537 45.514L48.0786 45.566L48.2039 45.6194L48.3295 45.6743L48.4553 45.7305L48.5814 45.7883L48.7077 45.8474L48.8343 45.908L48.961 45.9701L49.0879 46.0337L49.215 46.0987L49.3423 46.1652L49.4696 46.2331L49.5971 46.3025L49.7246 46.3735L49.8522 46.4459L49.9799 46.5198L50.1075 46.5952L50.2352 46.6721L50.3629 46.7505L50.4906 46.8304L50.6182 46.9118L50.7457 46.9947L50.8731 47.0791L51.0005 47.1651L51.1276 47.2525L51.2547 47.3415L51.3816 47.4319L51.5083 47.5239L51.6347 47.6175L51.761 47.7125L51.887 47.809L52.0127 47.9071L52.1382 48.0067L52.2633 48.1078L52.3881 48.2104L52.5126 48.3145L52.6367 48.4201L52.7604 48.5273L52.8837 48.6359L53.0066 48.7461L53.129 48.8577L53.251 48.9709L53.3725 49.0855L53.4934 49.2017L53.6139 49.3193L53.7338 49.4384L53.8531 49.5591L53.9718 49.6811L54.09 49.8047L54.2075 49.9297L54.3243 50.0562L54.4405 50.1842L54.5561 50.3136L54.6709 50.4444L54.785 50.5767L54.8983 50.7105L55.0109 50.8456L55.1227 50.9822L55.2337 51.1202L55.3439 51.2597L55.4532 51.4005L55.5617 51.5427L55.6693 51.6863L55.776 51.8313L55.8818 51.9776L55.9867 52.1253L56.0906 52.2744L56.1936 52.4248L56.2955 52.5765L56.3965 52.7296L56.4964 52.884L56.5953 53.0397L56.6931 53.1967L56.7899 53.355L56.8856 53.5145L56.9801 53.6753L57.0735 53.8374L57.1657 54.0007L57.2568 54.1653L57.3468 54.331L57.4355 54.498L57.5229 54.6662L57.6092 54.8355L57.6942 55.0061L57.778 55.1777L57.8604 55.3506L57.9416 55.5245L58.0214 55.6996L58.0999 55.8758L58.1771 56.0531L58.2528 56.2314L58.3273 56.4109L58.4003 56.5913L58.4719 56.7728L58.5421 56.9554L58.6108 57.1389L58.6781 57.3234L58.7439 57.5089L58.8083 57.6954L58.8711 57.8828L58.9324 58.0711L58.9923 58.2604L59.0505 58.4505L59.1072 58.6416L59.1624 58.8335L59.2159 59.0262L59.2679 59.2198L59.3183 59.4141L59.367 59.6093L59.4142 59.8053L59.4596 60.002L59.5035 60.1995L59.5456 60.3977L59.5861 60.5966L59.6249 60.7962L59.662 60.9964L59.6974 61.1974L59.7311 61.3989L59.763 61.6011L59.7932 61.8039L59.8216 62.0072L59.8483 62.2111L59.8732 62.4156L59.8963 62.6206L59.9176 62.8261L59.9372 63.032L59.9549 63.2385L59.9708 63.4453L59.9849 63.6526L59.9971 63.8603L60.0075 64.0684L60.0161 64.2769L60.0227 64.4857L60.0276 64.6948L60.0305 64.9042L60.0316 65.1139L60.0308 65.3239L60.0281 65.5341L60.0235 65.7445L60.017 65.9551L60.0086 66.1659L59.9983 66.3769L59.9861 66.588L59.9719 66.7992L59.9558 67.0105L59.9378 67.2218L59.9179 67.4332L59.896 67.6447L59.8721 67.8562L59.8463 68.0676L59.8186 68.279L59.7889 68.4904L59.7573 68.7016L59.7237 68.9128L59.6881 69.1238L59.6506 69.3347L59.6111 69.5455L59.5696 69.756L59.5262 69.9664L59.4808 70.1765L59.4334 70.3863L59.3841 70.5959L59.3328 70.8051L59.2796 71.0141L59.2243 71.2227L59.1671 71.4309L59.108 71.6388L59.0469 71.8462L58.9838 72.0532L58.9187 72.2598L58.8517 72.4659L58.7827 72.6715L58.7118 72.8765L58.6389 73.0811L58.5641 73.285L58.4873 73.4884L58.4086 73.6912L58.328 73.8933L58.2454 74.0948L58.1609 74.2956L58.0744 74.4957L57.9861 74.6951L57.8958 74.8938L57.8036 75.0917L57.7095 75.2888L57.6135 75.4851L57.5156 75.6806L57.4159 75.8753L57.3142 76.069L57.2107 76.2619L57.1053 76.4539L56.998 76.6449L56.8889 76.835L56.7779 77.0241L56.6652 77.2122L56.5505 77.3994L56.4341 77.5854L56.3158 77.7704L56.1958 77.9544L56.074 78.1372L55.9503 78.3189L55.8249 78.4995L55.6978 78.6789L55.5689 78.8571L55.4382 79.0342L55.3058 79.21L55.1717 79.3846L55.0359 79.5579L54.8983 79.7299L54.7591 79.9007L54.6182 80.0701L54.4757 80.2382L54.3315 80.4049L54.1856 80.5702L54.0382 80.7342L53.8891 80.8967L53.7384 81.0579L53.5862 81.2175L53.4323 81.3757L53.2769 81.5324L53.12 81.6876L52.9615 81.8413L52.8015 81.9935L52.64 82.1441L52.477 82.2931L52.3125 82.4405L52.1466 82.5863L51.9793 82.7305L51.8105 82.8731L51.6403 83.014L51.4687 83.1532L51.2957 83.2908L51.1214 83.4266L50.9457 83.5607L50.7687 83.6931L50.5904 83.8237L50.4108 83.9525L50.2299 84.0796L50.0477 84.2049L49.8643 84.3283L49.6797 84.4499L49.4939 84.5697L49.3069 84.6877L49.1187 84.8037L48.9293 84.9179L48.7388 85.0302L48.5473 85.1406L48.3546 85.249L48.1608 85.3555L47.966 85.4601L47.7701 85.5627L47.5733 85.6634L47.3754 85.762L47.1765 85.8587L46.9767 85.9533L46.776 86.046L46.5743 86.1366L46.3717 86.2251L46.1683 86.3116L45.964 86.3961L45.7588 86.4785L45.5528 86.5588L45.3461 86.637L45.1385 86.7131L44.9303 86.7871L44.7212 86.859L44.5115 86.9287L44.3011 86.9963L44.09 87.0618L43.8783 87.1251L43.6659 87.1863L43.453 87.2453L43.2394 87.3021L43.0253 87.3568L42.8107 87.4092L42.5956 87.4595L42.3799 87.5075L42.1638 87.5534L41.9473 87.597L41.7303 87.6384L41.5129 87.6776L41.2951 87.7146L41.077 87.7493L40.8586 87.7818L40.6398 87.8121L40.4207 87.8401L40.2014 87.8659L39.9819 87.8894L39.7621 87.9106L39.5421 87.9296L39.3219 87.9464L39.1016 87.9608L38.8812 87.973L38.6607 87.983L38.4401 87.9906L38.2194 87.996L37.9987 87.9992L37.7779 88L37.5572 87.9986L37.3365 87.9949L37.1159 87.9889L36.8954 87.9807L36.6749 87.9702L36.4546 87.9574L36.2345 87.9423L36.0145 87.925L35.7947 87.9054L35.5751 87.8835L35.3558 87.8594L35.1367 87.833L34.918 87.8043L34.6995 87.7734L34.4814 87.7402L34.2636 87.7048L34.0462 87.6672L33.8292 87.6272L33.6127 87.5851L33.3965 87.5407L33.1809 87.4941L32.9658 87.4453L32.7511 87.3942L32.5371 87.3409L32.3235 87.2854L32.1106 87.2278L31.8983 87.1679L31.6866 87.1058L31.4755 87.0415L31.2651 86.9751L31.0554 86.9065L30.8465 86.8357L30.6383 86.7628L30.4308 86.6877L30.2241 86.6105L30.0182 86.5312L29.8132 86.4497L29.609 86.3661L29.4057 86.2805L29.2032 86.1927L29.0017 86.1028L28.8011 86.0109L28.6014 85.9169L28.4028 85.8208L28.2051 85.7227L28.0084 85.6226L27.8128 85.5204L27.6183 85.4163L27.4248 85.3101L27.2324 85.202L27.0411 85.0918L26.8509 84.9797L26.662 84.8657L26.4741 84.7497L26.2875 84.6318L26.1021 84.5119L25.918 84.3902L25.735 84.2666L25.5534 84.1411L25.373 84.0138L25.194 83.8846L25.0162 83.7535L24.8398 83.6207L24.6648 83.4861L24.4912 83.3496L24.3189 83.2114L24.1481 83.0715L23.9787 82.9298L23.8107 82.7863L23.6442 82.6412L23.4792 82.4944L23.3157 82.3458L23.1537 82.1957L22.9932 82.0439L22.8343 81.8904L22.6769 81.7354L22.5211 81.5787L22.3669 81.4205L22.2143 81.2607L22.0634 81.0994L21.914 80.9365L21.7664 80.7721L21.6203 80.6063L21.476 80.439L21.3334 80.2702L21.1924 80.1L21.0532 79.9284L20.9158 79.7554L20.78 79.581L20.6461 79.4052L20.5139 79.2281L20.3835 79.0497L20.2548 78.87L20.128 78.689L20.0031 78.5068L19.8799 78.3233L19.7586 78.1386L19.6391 77.9527L19.5215 77.7656L19.4058 77.5773L19.292 77.3879L19.1801 77.1974L19.07 77.0058L18.9619 76.8131L18.8557 76.6194L18.7515 76.4246L18.6492 76.2288L18.5488 76.0321L18.4504 75.8343L18.354 75.6356L18.2595 75.436L18.167 75.2354L18.0765 75.034L17.988 74.8317L17.9016 74.6286L17.8171 74.4246L17.7346 74.2199L17.6542 74.0143L17.5758 73.8081L17.4994 73.601L17.4251 73.3933L17.3528 73.1849L17.2825 72.9758L17.2144 72.7661L17.1482 72.5557L17.0842 72.3448L17.0222 72.1332L16.9622 71.9212L16.9044 71.7086L16.8486 71.4954L16.7949 71.2818L16.7433 71.0677L16.6938 70.8532L16.6463 70.6383L16.601 70.423L16.5577 70.2072L16.5165 69.9912L16.4775 69.7748L16.4405 69.5581L16.4056 69.3411L16.3728 69.1239L16.342 68.9064L16.3134 68.6887L16.2869 68.4708L16.2624 68.2527L16.2401 68.0345L16.2198 67.8161L16.2017 67.5977L16.1856 67.3792L16.1716 67.1606L16.1597 66.9419L16.1498 66.7233L16.142 66.5046L16.1363 66.286L16.1327 66.0675L16.1312 65.849L16.1316 65.6306L16.1342 65.4123L16.1388 65.1942L16.1455 64.9762L16.1542 64.7584L16.1649 64.5408L16.1777 64.3235L16.1925 64.1064L16.2093 63.8895L16.2281 63.673L16.249 63.4567L16.2718 63.2408L16.2967 63.0252L16.3235 62.8101L16.3523 62.5953L16.3831 62.3809L16.4158 62.167L16.4505 61.9535L16.4872 61.7405L16.5258 61.528L16.5663 61.3161L16.6088 61.1046L16.6531 60.8937L16.6994 60.6835L16.7476 60.4738L16.7976 60.2647L16.8495 60.0563L16.9033 59.8485L16.959 59.6414L17.0165 59.435L17.0758 59.2293L17.1369 59.0243L17.1999 58.8202L17.2647 58.6167L17.3312 58.4141L17.3995 58.2123L17.4696 58.0113L17.5414 57.8111L17.615 57.6119L17.6903 57.4134L17.7673 57.2159L17.846 57.0194L17.9264 56.8237L18.0084 56.629L18.0922 56.4353L18.1775 56.2425L18.2645 56.0508L18.3531 55.86L18.4433 55.6703L18.5351 55.4817L18.6285 55.2941L18.7234 55.1076L18.8199 54.9222L18.9179 54.7379L19.0174 54.5547L19.1184 54.3727L19.2209 54.1918L19.3248 54.0121L19.4302 53.8336L19.537 53.6563L19.6453 53.4802L19.7549 53.3053L19.8659 53.1317L19.9783 52.9593L20.0921 52.7882L20.2071 52.6183L20.3235 52.4498L20.4412 52.2825L20.5601 52.1166L20.6803 51.952L20.8018 51.7888L20.9244 51.6269L21.0483 51.4663L21.1734 51.3072L21.2996 51.1494L21.427 50.993L21.5555 50.838L21.6852 50.6845L21.8159 50.5324L21.9477 50.3817L22.0806 50.2324L22.2145 50.0846L22.3494 49.9383L22.4853 49.7934L22.6222 49.6501L22.7601 49.5082L22.8989 49.3678L23.0386 49.2289L23.1793 49.0916L23.3208 48.9557L23.4632 48.8214L23.6064 48.6887L23.7505 48.5574L23.8953 48.4278L24.0409 48.2996L24.1873 48.1731L24.3345 48.0481L24.4824 47.9247L24.6309 47.8028L24.7802 47.6826L24.9301 47.5639L25.0807 47.4468L25.2318 47.3313L25.3836 47.2174L25.536 47.1052L25.6889 46.9945L25.8424 46.8854L25.9963 46.778L26.1508 46.6722L26.3058 46.568L26.4612 46.4654L26.6171 46.3644L26.7733 46.2651L26.93 46.1674L27.087 46.0713L27.2444 45.9768L27.4022 45.884L27.5602 45.7928L27.7185 45.7033L27.8772 45.6153L28.036 45.529L28.1951 45.4444L28.3544 45.3614L28.5139 45.2799L28.6736 45.2002L28.8334 45.122L28.9933 45.0455L29.1534 44.9706L29.3135 44.8973L29.4737 44.8257L29.634 44.7556L29.7943 44.6872L29.9546 44.6204L30.1149 44.5552L30.2751 44.4916L30.4353 44.4296L30.5955 44.3692L30.7555 44.3103L30.9154 44.2531L31.0752 44.1975L31.2349 44.1434L31.3943 44.0909L31.5536 44.0399L31.7127 43.9906L31.8716 43.9428L32.0302 43.8965L32.1885 43.8518L32.3466 43.8086L32.5043 43.7669L32.6617 43.7268L32.8188 43.6881L32.9756 43.651L33.1319 43.6154L33.2879 43.5813L33.4434 43.5486L33.5985 43.5175L33.7532 43.4878L33.9074 43.4595L34.0611 43.4328L34.2143 43.4074L34.367 43.3835L34.5191 43.361L34.6707 43.3399L34.8218 43.3202L34.9722 43.3019L35.122 43.285L35.2712 43.2695L35.4198 43.2553L35.5677 43.2424L35.7149 43.2309L35.8615 43.2208L36.0073 43.2119L36.1525 43.2044L36.2968 43.1981L36.4405 43.1931L36.5834 43.1894L36.7255 43.1869L36.8668 43.1857L37.0073 43.1857L37.1469 43.1869L37.2858 43.1893L37.4237 43.193L37.5608 43.1977L37.6971 43.2037L37.8324 43.2108L37.9668 43.219L38.1003 43.2284L38.2329 43.2388L38.3645 43.2504L38.4952 43.263L38.6249 43.2767L38.7536 43.2915L38.8813 43.3072L39.008 43.324L39.1337 43.3418L39.2583 43.3606L39.3819 43.3804L39.5045 43.4011L39.626 43.4227L39.7464 43.4453L39.8657 43.4688L39.9839 43.4931L40.1011 43.5184L40.2171 43.5445L40.3319 43.5715L40.4457 43.5992L40.5583 43.6278L40.6697 43.6572L40.78 43.6874L40.8891 43.7183L40.997 43.75L41.1038 43.7823L41.2093 43.8154L41.3136 43.8492L41.4168 43.8837L41.5187 43.9188L41.6193 43.9545L41.7188 43.9909L41.817 44.0279L41.914 44.0655L42.0097 44.1036L42.1041 44.1423L42.1973 44.1815L42.2893 44.2212L42.3799 44.2614L42.4693 44.3021L42.5574 44.3433L42.6442 44.3849L42.7297 44.4269L42.8139 44.4693L42.8969 44.5121L42.9785 44.5553L43.0588 44.5988L43.1378 44.6427L43.2155 44.6868L43.2919 44.7313L43.3669 44.776L43.4407 44.821L43.5131 44.8663L43.5842 44.9117L43.654 44.9574L43.7225 45.0032L43.7896 45.0492L43.8554 45.0953L43.9199 45.1416L43.983 45.188L44.0448 45.2345L44.1053 45.281L44.1645 45.3276L44.2224 45.3742L44.2789 45.4209L44.3341 45.4675L44.388 45.5141L44.4405 45.5607L44.4918 45.6072L44.5417 45.6537L44.5903 45.7L44.6376 45.7463L44.6836 45.7924L44.7283 45.8383L44.7717 45.8841L44.8138 45.9297L44.8546 45.9751L44.8941 46.0203L44.9324 46.0653L44.9693 46.11L45.005 46.1544L45.0394 46.1985L45.0725 46.2423L45.1044 46.2858L45.135 46.3289L45.1644 46.3717L45.1926 46.4141L45.2195 46.4561L45.2451 46.4977L45.2696 46.5388L45.2928 46.5796L45.3148 46.6198L45.3357 46.6596L45.3553 46.6988L45.3737 46.7376L45.391 46.7758L45.4071 46.8135L45.422 46.8506L45.4358 46.8871L45.4485 46.9231L45.46 46.9584L45.4704 46.9931L45.4796 47.0272L45.4878 47.0606L45.4949 47.0933L45.5008 47.1254L45.5058 47.1567L45.5096 47.1873L45.5124 47.2172L45.5141 47.2463L45.5149 47.2747L45.5145 47.3023L45.5132 47.3292L45.5109 47.3552L45.5076 47.3804L45.5033 47.4047L45.4981 47.4282L45.4919 47.4509L45.4848 47.4727L45.4767 47.4936L45.4678 47.5136L45.4579 47.5327L45.4472 47.5508L45.4356 47.5681L45.4231 47.5844L45.4098 47.5997L45.3956 47.614L45.3807 47.6274L45.3649 47.6398L45.3483 47.6511L45.331 47.6615L45.3129 47.6708L45.2941 47.6791L45.2745 47.6863L45.2542 47.6925L45.2332 47.6976L45.2115 47.7017L45.1892 47.7046L45.1662 47.7064L45.1426 47.7072L45.1183 47.7068L45.0934 47.7052L45.068 47.7026L45.0419 47.6988L45.0153 47.6939L44.9882 47.6877L44.9605 47.6805L44.9324 47.672L44.9037 47.6624L44.8746 47.6516L44.8449 47.6395L44.8149 47.6263L44.7844 47.6119L44.7535 47.5962L44.7223 47.5793L44.6906 47.5612L44.6586 47.5418L44.6263 47.5213L44.5936 47.4994L44.5606 47.4763L44.5274 47.452L44.4938 47.4264L44.4601 47.3995L44.426 47.3714L44.3918 47.3419L44.3574 47.3113L44.3228 47.2793L44.288 47.246L44.2531 47.2115L44.218 47.1757L44.1829 47.1385L44.1477 47.1001L44.1123 47.0604L44.077 47.0194L44.0416 46.9771L44.0062 46.9335L43.9708 46.8885L43.9354 46.8423L43.9 46.7948L43.8647 46.746L43.8295 46.6958L43.7944 46.6444L43.7593 46.5917L43.7244 46.5376L43.6897 46.4823L43.6551 46.4256L43.6208 46.3677L43.5866 46.3084L43.5526 46.2479L43.5189 46.1861L43.4854 46.1229L43.4523 46.0585L43.4194 45.9928L43.3868 45.9258L43.3546 45.8575L43.3227 45.788L43.2912 45.7171L43.26 45.645L43.2293 45.5717L43.199 45.4971L43.1691 45.4212L43.1397 45.344L43.1108 45.2656L43.0824 45.186L43.0544 45.1051L43.0271 45.0231L43.0002 44.9397L42.9739 44.8552L42.9482 44.7694L42.9232 44.6825L42.8987 44.5943L42.8748 44.505L42.8517 44.4144L42.8291 44.3227L42.8073 44.2298L42.7862 44.1358L42.7658 44.0406L42.7461 43.9443L42.7272 43.8468L42.7091 43.7482L42.6917 43.6485L42.6751 43.5476L42.6594 43.4457L42.6445 43.3427L42.6305 43.2386L42.6173 43.1334L42.605 43.0272L42.5936 42.9199L42.5831 42.8116L42.5736 42.7022L42.565 42.5919L42.5573 42.4805L42.5507 42.3681L42.545 42.2548L42.5403 42.1405L42.5367 42.0252L42.534 41.909L42.5325 41.7919L42.532 41.6738L42.5325 41.5549L42.5342 41.435L42.537 41.3143L42.5408 41.1927L42.5459 41.0702L42.552 40.9469L42.5593 40.8228L42.5678 40.6979L42.5775 40.5721L42.5884 40.4456L42.6005 40.3183L42.6138 40.1903L42.6283 40.0615L42.6441 39.9321L42.6611 39.8019L42.6794 39.671L42.699 39.5394L42.7198 39.4072L42.742 39.2743L42.7655 39.1408L42.7903 39.0067L42.8164 38.872L42.8439 38.7367L42.8728 38.6009L42.903 38.4645L42.9345 38.3276L42.9675 38.1901L43.0018 38.0522L43.0376 37.9138L43.0747 37.775L43.1133 37.6357L43.1533 37.4959L43.1947 37.3558L43.2376 37.2153L43.2819 37.0744L43.3277 36.9332L43.3749 36.7916L43.4236 36.6497L43.4738 36.5075L43.5255 36.3651L43.5786 36.2223L43.6333 36.0794L43.6895 35.9362L43.7471 35.7928L43.8063 35.6492L43.867 35.5055L43.9292 35.3616L43.993 35.2176L44.0583 35.0735L44.1251 34.9292L44.1935 34.785L44.2634 34.6406L44.3348 34.4963L44.4078 34.3519L44.4824 34.2076L44.5585 34.0632L44.6362 33.919L44.7155 33.7748L44.7963 33.6307L44.8787 33.4866L44.9626 33.3428L45.0481 33.199L45.1352 33.0555L45.2239 32.9121L45.3142 32.7689L45.406 32.626L45.4993 32.4833L45.5943 32.3409L45.6908 32.1988L45.789 32.057L45.8886 31.9155L45.9899 31.7744L46.0927 31.6336L46.1971 31.4933L46.303 31.3533L46.4106 31.2138L46.5196 31.0747L46.6303 30.9361L46.7425 30.798L46.8562 30.6604L46.9716 30.5233L47.0884 30.3868L47.2068 30.2509L47.3267 30.1155L47.4482 29.9808L47.5712 29.8467L47.6957 29.7133L47.8218 29.5805L47.9494 29.4484L48.0784 29.317L48.209 29.1864L48.3411 29.0565L48.4747 28.9274L48.6097 28.7991L48.7463 28.6716L48.8843 28.5449L49.0238 28.4191L49.1647 28.2941L49.3071 28.1701L49.4509 28.0469L49.5962 27.9247L49.7429 27.8034L49.891 27.683L50.0405 27.5637L50.1915 27.4454L50.3438 27.3281L50.4975 27.2118L50.6525 27.0966L50.809 26.9824L50.9667 26.8694L51.1259 26.7574L51.2863 26.6466L51.4481 26.537L51.6112 26.4285L51.7756 26.3212L51.9412 26.2151L52.1082 26.1102L52.2764 26.0066L52.4459 25.9042L52.6166 25.8031L52.7885 25.7033L52.9616 25.6048L53.1359 25.5076L53.3115 25.4117L53.4882 25.3172L53.666 25.2241L53.845 25.1323L54.0252 25.042L54.2064 24.9531L54.3888 24.8656L54.5722 24.7796L54.7567 24.695L54.9423 24.6119L55.1289 24.5303L55.3166 24.4503L55.5052 24.3717L55.6949 24.2947L55.8856 24.2193L56.0772 24.1454L56.2697 24.0731L56.4632 24.0024L56.6576 23.9333L56.8529 23.8658L57.0491 23.8L57.2462 23.7358L57.4441 23.6733L57.6428 23.6124L57.8424 23.5533L58.0427 23.4958L58.2438 23.4401L58.4457 23.3861L58.6483 23.3338L58.8517 23.2833L59.0557 23.2345L59.2605 23.1875L59.4659 23.1423L59.6719 23.0989L59.8786 23.0572L60.0859 23.0174L60.2938 22.9794L60.5022 22.9433L60.7112 22.9089L60.9207 22.8765L61.1308 22.8459L61.3413 22.8171L61.5523 22.7903L61.7638 22.7653L61.9757 22.7422L62.188 22.721L62.4007 22.7018L62.6138 22.6844L62.8272 22.669L63.0409 22.6555L63.255 22.644L63.4693 22.6344L63.6839 22.6267L63.8987 22.621L64.1138 22.6173L64.3291 22.6155L64.5445 22.6157L64.7601 22.6179L64.9759 22.6221L65.1918 22.6283L65.4077 22.6364L65.6237 22.6466L65.8398 22.6587L66.0559 22.6729L66.2721 22.6891L66.4882 22.7073L66.7042 22.7275L66.9202 22.7497L67.1362 22.7739L67.352 22.8002L67.5677 22.8285L67.7832 22.8588L67.9986 22.8911L68.2138 22.9255L68.4288 22.9619L68.6435 23.0003L68.858 23.0407L69.0722 23.0832L69.286 23.1277L69.4996 23.1743L69.7128 23.2229L69.9257 23.2735L70.1381 23.3261L70.3502 23.3807L70.5618 23.4374L70.7729 23.4961L70.9835 23.5568L71.1937 23.6196L71.4033 23.6843L71.6124 23.7511L71.8209 23.8198L72.0288 23.8906L72.2361 23.9634L72.4427 24.0382L72.6487 24.1149L72.854 24.1937L73.0587 24.2744L73.2625 24.3571L73.4657 24.4418L73.668 24.5285L73.8696 24.6171L74.0703 24.7077L74.2703 24.8002L74.4693 24.8947L74.6675 24.9911L74.8648 25.0894L75.0611 25.1896L75.2566 25.2918L75.451 25.3959L75.6445 25.5019L75.8369 25.6097L76.0284 25.7195L76.2187 25.8311L76.4081 25.9446L76.5963 26.0599L76.7834 26.1771L76.9694 26.2961L77.1542 26.4169L77.3378 26.5396L77.5203 26.6641L77.7015 26.7903L77.8816 26.9184L78.0603 27.0482L78.2378 27.1798L78.414 27.3131L78.5889 27.4482L78.7624 27.5849L78.9346 27.7234L79.1055 27.8637L79.2749 28.0055L79.4429 28.1491L79.6095 28.2943L79.7747 28.4412L79.9384 28.5897L80.1006 28.7399L80.2613 28.8916L80.4205 29.045L80.5782 29.1999L80.7343 29.3564L80.8888 29.5144L81.0418 29.674L81.1931 29.8351L81.3428 29.9977L81.4909 30.1617L81.6374 30.3273L81.7821 30.4943L81.9252 30.6627L82.0665 30.8326L82.2062 31.0039L82.3441 31.1766L82.4802 31.3506L82.6146 31.526L82.7472 31.7028L82.878 31.8808L83.007 32.0602L83.1342 32.2409L83.2595 32.4228L83.383 32.606L83.5046 32.7904L83.6243 32.976L83.7421 33.1628L83.858 33.3508L83.972 33.54L84.0841 33.7303L84.1942 33.9217L84.3023 34.1142L84.4085 34.3078L84.5126 34.5024L84.6148 34.6981L84.715 34.8948L84.8131 35.0925L84.9092 35.2912L85.0033 35.4909L85.0953 35.6915L85.1853 35.893L85.2732 36.0954L85.359 36.2987L85.4427 36.5029L85.5243 36.7079L85.6038 36.9137L85.6811 37.1202L85.7563 37.3276L85.8294 37.5357L85.9004 37.7446L85.9692 37.9541L86.0358 38.1644L86.1002 38.3753L86.1625 38.5868L86.2226 38.799L86.2805 39.0117L86.3362 39.2251L86.3897 39.439L86.4409 39.6534L86.49 39.8683L86.5368 40.0837L86.5814 40.2996L86.6238 40.5159L86.6639 40.7327L86.7018 40.9498L86.7374 41.1673L86.7708 41.3852L86.8019 41.6034L86.8308 41.8219L86.8574 42.0406L86.8817 42.2597L86.9038 42.4789L86.9236 42.6984L86.9411 42.9181L86.9564 43.1379L86.9693 43.3579L86.98 43.578L86.9884 43.7982L86.9946 44.0185L86.9984 44.2388L87 44.4591L87 44.5Z" fill="#E08B8B" fill-opacity="0.34" stroke="#E08B8B"/>
</svg>
